<svg width="28" height="27" viewBox="0 0 28 27" fill="none" xmlns="http://www.w3.org/2000/svg">
<path d="M14 0.219727C6.66669 0.219727 0.666687 6.20639 0.666687 13.5797C0.666687 20.2464 5.54669 25.7797 11.92 26.7797V17.4464H8.53335V13.5797H11.92V10.6331C11.92 7.28639 13.9067 5.44639 16.96 5.44639C18.4134 5.44639 19.9334 5.69973 19.9334 5.69973V8.99306H18.2534C16.6 8.99306 16.08 10.0197 16.08 11.0731V13.5797H19.7867L19.1867 17.4464H16.08V26.7797C19.2219 26.2835 22.083 24.6804 24.1466 22.2598C26.2102 19.8392 27.3405 16.7606 27.3334 13.5797C27.3334 6.20639 21.3334 0.219727 14 0.219727Z" fill="white"/>
</svg>
