<svg width="28" height="27" viewBox="0 0 28 27" fill="none" xmlns="http://www.w3.org/2000/svg">
<path d="M8.40002 0.166992H19.6C23.8667 0.166992 27.3334 3.63366 27.3334 7.90033V19.1003C27.3334 21.1513 26.5186 23.1183 25.0683 24.5686C23.618 26.0189 21.651 26.8337 19.6 26.8337H8.40002C4.13335 26.8337 0.666687 23.367 0.666687 19.1003V7.90033C0.666687 5.84932 1.48145 3.88231 2.93173 2.43203C4.38201 0.981752 6.34901 0.166992 8.40002 0.166992ZM8.13335 2.83366C6.86031 2.83366 5.63942 3.33937 4.73924 4.23955C3.83907 5.13972 3.33335 6.36062 3.33335 7.63366V19.367C3.33335 22.0203 5.48002 24.167 8.13335 24.167H19.8667C21.1397 24.167 22.3606 23.6613 23.2608 22.7611C24.161 21.8609 24.6667 20.64 24.6667 19.367V7.63366C24.6667 4.98033 22.52 2.83366 19.8667 2.83366H8.13335ZM21 4.83366C21.442 4.83366 21.866 5.00925 22.1785 5.32181C22.4911 5.63438 22.6667 6.0583 22.6667 6.50033C22.6667 6.94235 22.4911 7.36628 22.1785 7.67884C21.866 7.9914 21.442 8.16699 21 8.16699C20.558 8.16699 20.1341 7.9914 19.8215 7.67884C19.5089 7.36628 19.3334 6.94235 19.3334 6.50033C19.3334 6.0583 19.5089 5.63438 19.8215 5.32181C20.1341 5.00925 20.558 4.83366 21 4.83366ZM14 6.83366C15.7681 6.83366 17.4638 7.53604 18.7141 8.78628C19.9643 10.0365 20.6667 11.7322 20.6667 13.5003C20.6667 15.2684 19.9643 16.9641 18.7141 18.2144C17.4638 19.4646 15.7681 20.167 14 20.167C12.2319 20.167 10.5362 19.4646 9.28598 18.2144C8.03573 16.9641 7.33335 15.2684 7.33335 13.5003C7.33335 11.7322 8.03573 10.0365 9.28598 8.78628C10.5362 7.53604 12.2319 6.83366 14 6.83366ZM14 9.50033C12.9392 9.50033 11.9217 9.92175 11.1716 10.6719C10.4214 11.422 10 12.4395 10 13.5003C10 14.5612 10.4214 15.5786 11.1716 16.3288C11.9217 17.0789 12.9392 17.5003 14 17.5003C15.0609 17.5003 16.0783 17.0789 16.8284 16.3288C17.5786 15.5786 18 14.5612 18 13.5003C18 12.4395 17.5786 11.422 16.8284 10.6719C16.0783 9.92175 15.0609 9.50033 14 9.50033Z" fill="white"/>
</svg>
