<svg width="28" height="24" viewBox="0 0 28 24" fill="none" xmlns="http://www.w3.org/2000/svg">
<path d="M27.9467 3.49967C26.92 3.96634 25.8133 4.27301 24.6667 4.41967C25.84 3.71301 26.7467 2.59301 27.1733 1.24634C26.0667 1.91301 24.84 2.37967 23.5467 2.64634C22.4933 1.49967 21.0133 0.833008 19.3333 0.833008C16.2 0.833008 13.64 3.39301 13.64 6.55301C13.64 7.00634 13.6933 7.44634 13.7867 7.85967C9.04001 7.61967 4.81334 5.33967 2.00001 1.88634C1.50668 2.72634 1.22668 3.71301 1.22668 4.75301C1.22668 6.73967 2.22668 8.49967 3.77334 9.49967C2.82668 9.49967 1.94668 9.23301 1.17334 8.83301C1.17334 8.83301 1.17334 8.83301 1.17334 8.87301C1.17334 11.6463 3.14668 13.9663 5.76001 14.4863C5.28001 14.6197 4.77334 14.6863 4.25334 14.6863C3.89334 14.6863 3.53334 14.6463 3.18668 14.5797C3.90668 16.833 6.00001 18.513 8.52001 18.553C6.57334 20.0997 4.10668 21.0063 1.41334 21.0063C0.960011 21.0063 0.506678 20.9797 0.0533447 20.9263C2.58668 22.553 5.60001 23.4997 8.82668 23.4997C19.3333 23.4997 25.1067 14.7797 25.1067 7.21967C25.1067 6.96634 25.1067 6.72634 25.0933 6.47301C26.2133 5.67301 27.1733 4.65967 27.9467 3.49967Z" fill="white"/>
</svg>
