<svg width="122" height="132" viewBox="0 0 122 132" fill="none" xmlns="http://www.w3.org/2000/svg">
<path d="M18.714 43.3053V43.3052L18.7048 43.3055C17.5134 43.3496 16.4488 43.8368 15.6523 44.7219C14.8582 45.6042 14.4605 46.7096 14.5046 47.8993C14.5489 49.097 15.0823 50.1595 15.9626 50.9518C16.8438 51.7448 17.9475 52.1425 19.1354 52.0997H68.8134C70.0019 52.0997 71.1057 51.6589 71.9446 50.8641L71.9447 50.8642L71.9495 50.8594C72.79 50.0189 73.2314 48.9125 73.2314 47.7233C73.2314 46.5285 72.7445 45.4263 71.9542 44.5921L71.9539 44.5919C71.1134 43.7071 70.0037 43.2624 68.8088 43.3053H19.0891H19.0884H19.0877H19.0869H19.0862H19.0855H19.0847H19.084H19.0833H19.0825H19.0818H19.0811H19.0803H19.0796H19.0789H19.0781H19.0774H19.0767H19.0759H19.0752H19.0745H19.0738H19.073H19.0723H19.0716H19.0708H19.0701H19.0694H19.0686H19.0679H19.0672H19.0664H19.0657H19.065H19.0642H19.0635H19.0628H19.062H19.0613H19.0606H19.0598H19.0591H19.0584H19.0576H19.0569H19.0562H19.0554H19.0547H19.054H19.0532H19.0525H19.0518H19.051H19.0503H19.0496H19.0488H19.0481H19.0474H19.0466H19.0459H19.0452H19.0444H19.0437H19.043H19.0422H19.0415H19.0408H19.04H19.0393H19.0386H19.0378H19.0371H19.0364H19.0357H19.0349H19.0342H19.0335H19.0327H19.032H19.0313H19.0305H19.0298H19.0291H19.0283H19.0276H19.0269H19.0261H19.0254H19.0247H19.0239H19.0232H19.0225H19.0217H19.021H19.0203H19.0195H19.0188H19.0181H19.0173H19.0166H19.0159H19.0151H19.0144H19.0137H19.0129H19.0122H19.0115H19.0107H19.01H19.0093H19.0085H19.0078H19.0071H19.0063H19.0056H19.0049H19.0041H19.0034H19.0027H19.0019H19.0012H19.0005H18.9998H18.999H18.9983H18.9976H18.9968H18.9961H18.9954H18.9946H18.9939H18.9932H18.9924H18.9917H18.991H18.9902H18.9895H18.9888H18.988H18.9873H18.9866H18.9858H18.9851H18.9844H18.9836H18.9829H18.9822H18.9814H18.9807H18.98H18.9792H18.9785H18.9778H18.977H18.9763H18.9756H18.9748H18.9741H18.9734H18.9726H18.9719H18.9712H18.9704H18.9697H18.969H18.9682H18.9675H18.9668H18.966H18.9653H18.9646H18.9639H18.9631H18.9624H18.9617H18.9609H18.9602H18.9595H18.9587H18.958H18.9573H18.9565H18.9558H18.9551H18.9543H18.9536H18.9529H18.9521H18.9514H18.9507H18.9499H18.9492H18.9485H18.9477H18.947H18.9463H18.9455H18.9448H18.9441H18.9433H18.9426H18.9419H18.9411H18.9404H18.9397H18.9389H18.9382H18.9375H18.9367H18.936H18.9353H18.9345H18.9338H18.9331H18.9323H18.9316H18.9309H18.9301H18.9294H18.9287H18.928H18.9272H18.9265H18.9258H18.925H18.9243H18.9236H18.9228H18.9221H18.9214H18.9206H18.9199H18.9192H18.9184H18.9177H18.917H18.9162H18.9155H18.9148H18.914H18.9133H18.9126H18.9118H18.9111H18.9104H18.9096H18.9089H18.9082H18.9074H18.9067H18.906H18.9052H18.9045H18.9038H18.903H18.9023H18.9016H18.9008H18.9001H18.8994H18.8986H18.8979H18.8972H18.8964H18.8957H18.895H18.8942H18.8935H18.8928H18.8921H18.8913H18.8906H18.8899H18.8891H18.8884H18.8877H18.8869H18.8862H18.8855H18.8847H18.884H18.8833H18.8825H18.8818H18.8811H18.8803H18.8796H18.8789H18.8781H18.8774H18.8767H18.8759H18.8752H18.8745H18.8737H18.873H18.8723H18.8715H18.8708H18.8701H18.8693H18.8686H18.8679H18.8671H18.8664H18.8657H18.8649H18.8642H18.8635H18.8627H18.862H18.8613H18.8605H18.8598H18.8591H18.8583H18.8576H18.8569H18.8562H18.8554H18.8547H18.854H18.8532H18.8525H18.8518H18.851H18.8503H18.8496H18.8488H18.8481H18.8474H18.8466H18.8459H18.8452H18.8444H18.8437H18.843H18.8422H18.8415H18.8408H18.84H18.8393H18.8386H18.8378H18.8371H18.8364H18.8356H18.8349H18.8342H18.8334H18.8327H18.832H18.8312H18.8305H18.8298H18.829H18.8283H18.8276H18.8268H18.8261H18.8254H18.8246H18.8239H18.8232H18.8224H18.8217H18.821H18.8203H18.8195H18.8188H18.8181H18.8173H18.8166H18.8159H18.8151H18.8144H18.8137H18.8129H18.8122H18.8115H18.8107H18.81H18.8093H18.8085H18.8078H18.8071H18.8063H18.8056H18.8049H18.8041H18.8034H18.8027H18.8019H18.8012H18.8005H18.7997H18.799H18.7983H18.7975H18.7968H18.7961H18.7953H18.7946H18.7939H18.7931H18.7924H18.7917H18.7909H18.7902H18.7895H18.7887H18.788H18.7873H18.7865H18.7858H18.7851H18.7844H18.7836H18.7829H18.7822H18.7814H18.7807H18.78H18.7792H18.7785H18.7778H18.777H18.7763H18.7756H18.7748H18.7741H18.7734H18.7726H18.7719H18.7712H18.7704H18.7697H18.769H18.7682H18.7675H18.7668H18.766H18.7653H18.7646H18.7638H18.7631H18.7624H18.7616H18.7609H18.7602H18.7594H18.7587H18.758H18.7572H18.7565H18.7558H18.755H18.7543H18.7536H18.7528H18.7521H18.7514H18.7506H18.7499H18.7492H18.7485H18.7477H18.747H18.7463H18.7455H18.7448H18.7441H18.7433H18.7426H18.7419H18.7411H18.7404H18.7397H18.7389H18.7382H18.7375H18.7367H18.736H18.7353H18.7345H18.7338H18.7331H18.7323H18.7316H18.7309H18.7301H18.7294H18.7287H18.7279H18.7272H18.7265H18.7257H18.725H18.7243H18.7235H18.7228H18.7221H18.7213H18.7206H18.7199H18.7191H18.7184H18.7177H18.7169H18.7162H18.7155H18.7147H18.714Z" fill="#239D4A" stroke="#239D4A" stroke-width="0.5"/>
<path d="M88.1779 34.2106L88.1779 34.2106L88.1831 34.2066C89.2293 33.3783 89.8617 32.2692 89.8617 31.0513C89.8617 29.8334 89.2293 28.7243 88.1831 27.896C87.1313 27.0634 85.6977 26.6326 84.2314 26.675H20.3395H20.3388H20.3381H20.3373H20.3366H20.3358H20.3351H20.3344H20.3336H20.3329H20.3321H20.3314H20.3306H20.3298H20.3291H20.3283H20.3276H20.3268H20.326H20.3253H20.3245H20.3237H20.323H20.3222H20.3214H20.3206H20.3199H20.3191H20.3183H20.3175H20.3167H20.3159H20.3151H20.3144H20.3136H20.3128H20.312H20.3112H20.3104H20.3096H20.3088H20.308H20.3072H20.3064H20.3056H20.3047H20.3039H20.3031H20.3023H20.3015H20.3007H20.2998H20.299H20.2982H20.2974H20.2966H20.2957H20.2949H20.2941H20.2932H20.2924H20.2916H20.2907H20.2899H20.2891H20.2882H20.2874H20.2865H20.2857H20.2848H20.284H20.2831H20.2823H20.2814H20.2806H20.2797H20.2789H20.278H20.2772H20.2763H20.2754H20.2746H20.2737H20.2729H20.272H20.2711H20.2703H20.2694H20.2685H20.2676H20.2668H20.2659H20.265H20.2641H20.2633H20.2624H20.2615H20.2606H20.2597H20.2589H20.258H20.2571H20.2562H20.2553H20.2544H20.2535H20.2526H20.2517H20.2508H20.2499H20.249H20.2482H20.2473H20.2464H20.2455H20.2445H20.2436H20.2427H20.2418H20.2409H20.24H20.2391H20.2382H20.2373H20.2364H20.2355H20.2346H20.2336H20.2327H20.2318H20.2309H20.23H20.2291H20.2281H20.2272H20.2263H20.2254H20.2244H20.2235H20.2226H20.2217H20.2207H20.2198H20.2189H20.218H20.217H20.2161H20.2152H20.2142H20.2133H20.2124H20.2114H20.2105H20.2096H20.2086H20.2077H20.2067H20.2058H20.2049H20.2039H20.203H20.202H20.2011H20.2001H20.1992H20.1983H20.1973H20.1964H20.1954H20.1945H20.1935H20.1926H20.1916H20.1907H20.1897H20.1888H20.1878H20.1869H20.1859H20.1849H20.184H20.183H20.1821H20.1811H20.1802H20.1792H20.1782H20.1773H20.1763H20.1754H20.1744H20.1734H20.1725H20.1715H20.1706H20.1696H20.1686H20.1677H20.1667H20.1657H20.1648H20.1638H20.1628H20.1619H20.1609H20.1599H20.159H20.158H20.157H20.1561H20.1551H20.1541H20.1532H20.1522H20.1512H20.1503H20.1493H20.1483H20.1473H20.1464H20.1454H20.1444H20.1435H20.1425H20.1415H20.1405H20.1396H20.1386H20.1376H20.1366H20.1357H20.1347H20.1337H20.1327H20.1318H20.1308H20.1298H20.1288H20.1279H20.1269H20.1259H20.1249H20.124H20.123H20.122H20.121H20.1201H20.1191H20.1181H20.1171H20.1162H20.1152H20.1142H20.1132H20.1122H20.1113H20.1103H20.1093H20.1083H20.1074H20.1064H20.1054H20.1044H20.1035H20.1025H20.1015H20.1005H20.0995H20.0986H20.0976H20.0966H20.0956H20.0947H20.0937H20.0927H20.0917H20.0908H20.0898H20.0888H20.0878H20.0869H20.0859H20.0849H20.0839H20.083H20.082H20.081H20.08H20.0791H20.0781H20.0771H20.0762H20.0752H20.0742H20.0732H20.0723H20.0713H20.0703H20.0694H20.0684H20.0674H20.0664H20.0655H20.0645H20.0635H20.0626H20.0616H20.0606H20.0597H20.0587H20.0577H20.0568H20.0558H20.0548H20.0539H20.0529H20.0519H20.051H20.05H20.0491H20.0481H20.0471H20.0462H20.0452H20.0443H20.0433H20.0423H20.0414H20.0404H20.0395H20.0385H20.0375H20.0366H20.0356H20.0347H20.0337H20.0328H20.0318H20.0309H20.0299H20.029H20.028H20.0271H20.0261H20.0252H20.0242H20.0233H20.0223H20.0214H20.0204H20.0195H20.0186H20.0176H20.0167H20.0157H20.0148H20.0138H20.0129H20.012H20.011H20.0101H20.0092H20.0082H20.0073H20.0064H20.0054H20.0045H20.0036H20.0026H20.0017H20.0008H19.9998H19.9989H19.998H19.9971H19.9961H19.9952H19.9943H19.9934H19.9924H19.9915H19.9906H19.9897H19.9888H19.9879H19.9869H19.986H19.9851H19.9842H19.9833H19.9824H19.9815H19.9806H19.9797H19.9787H19.9778H19.9769H19.976H19.9751H19.9742H19.9733H19.9724H19.9715H19.9706H19.9697H19.9688H19.968H19.9671H19.9662H19.9653H19.9644H19.9635H19.9626H19.9617H19.9608H19.96H19.9591H19.9582H19.9573H19.9564H19.9556H19.9547H19.9538H19.9529H19.9521H19.9512H19.9503H19.9495H19.9486H19.9477H19.9469H19.946H19.9451H19.9443H19.9434H19.9426H19.9417H19.9408H19.94H19.9391H19.9383H19.9374H19.9366H19.9357H19.9349H19.934H19.9332H19.9324H19.9315H19.9307H19.9298H19.929H19.9282H19.9273H19.9265H19.9257H19.9249H19.924H19.9232H19.9224H19.9216H19.9207H19.9199H19.9191H19.9183H19.9175H19.9166H19.9158H19.915H19.9142H19.9134H19.9126H19.9118H19.911H19.9102H19.9094H19.9086H19.9078H19.907H19.9062H19.9054H19.9046H19.9039H19.9031H19.9023H19.9015H19.9007H19.8999H19.8992H19.8984H19.8976H19.8968H19.8961H19.8953H19.8945H19.8938H19.893H19.8923H19.8915H19.8907H19.89H19.8892H19.8885H19.8877H19.887H19.8862H19.8855H19.8847H19.884H19.8833H19.8825H19.8818H19.881V26.6749L19.8737 26.6751C18.4103 26.7181 17.0177 27.1917 16.0075 28.0701C15.0047 28.942 14.4592 30.053 14.5461 31.269C14.55 32.4146 15.2795 33.5197 16.3589 34.2968C17.4513 35.0833 18.8813 35.4699 20.3432 35.4276H84.235C85.6973 35.4276 87.1277 34.9982 88.1779 34.2106Z" fill="#239D4A" stroke="#239D4A" stroke-width="0.5"/>
<path d="M18.714 59.8523V59.8521L18.7048 59.8525C17.5071 59.8968 16.4445 60.4302 15.6523 61.3105C14.8582 62.1928 14.4605 63.2983 14.5046 64.488C14.5489 65.6856 15.0823 66.7482 15.9626 67.5404C16.8438 68.3335 17.9475 68.7311 19.1354 68.6883H52.2664C53.4549 68.6883 54.5587 68.2475 55.3977 67.4527L55.3977 67.4528L55.4025 67.448C56.243 66.6075 56.6844 65.5012 56.6844 64.312C56.6844 63.1172 56.1975 62.015 55.4072 61.1808L55.4073 61.1807L55.4025 61.1759C54.5671 60.3406 53.4196 59.8509 52.2617 59.894H19.1263C18.9772 59.8522 18.834 59.8522 18.7257 59.8523C18.7218 59.8523 18.7179 59.8523 18.714 59.8523Z" fill="#239D4A" stroke="#239D4A" stroke-width="0.5"/>
<path d="M18.714 76.3992V76.399L18.7048 76.3993C17.5071 76.4437 16.4445 76.9771 15.6523 77.8574C14.8582 78.7397 14.4605 79.8451 14.5046 81.0348C14.5489 82.2325 15.0823 83.2951 15.9626 84.0873C16.8438 84.8804 17.9475 85.278 19.1354 85.2352H52.2664C53.4549 85.2352 54.5587 84.7944 55.3977 83.9996L55.3977 83.9997L55.4025 83.9949C56.243 83.1544 56.6844 82.048 56.6844 80.8589C56.6844 79.664 56.1975 78.5618 55.4072 77.7276L55.4073 77.7276L55.4025 77.7228C54.5671 76.8874 53.4196 76.3978 52.2617 76.4409H19.1263C18.9772 76.399 18.834 76.3991 18.7257 76.3992C18.7218 76.3992 18.7179 76.3992 18.714 76.3992Z" fill="#239D4A" stroke="#239D4A" stroke-width="0.5"/>
<path d="M18.714 92.9878V92.9876L18.7048 92.988C17.5071 93.0323 16.4445 93.5657 15.6523 94.446C14.8582 95.3283 14.4605 96.4338 14.5046 97.6234C14.5489 98.8211 15.0823 99.8837 15.9626 100.676C16.8438 101.469 17.9475 101.867 19.1354 101.824H52.2664C53.4549 101.824 54.5587 101.383 55.3977 100.588L55.3977 100.588L55.4025 100.584C56.243 99.743 56.6844 98.6367 56.6844 97.4475C56.6844 96.2527 56.1975 95.1505 55.4072 94.3163L55.407 94.316C54.5657 93.4305 53.4141 92.9865 52.2617 93.0295H19.1263C18.9772 92.9877 18.834 92.9877 18.7257 92.9878C18.7218 92.9878 18.7179 92.9878 18.714 92.9878Z" fill="#239D4A" stroke="#239D4A" stroke-width="0.5"/>
<path d="M110.619 106.242H110.869V106.492H110.91V98.1561C110.91 97.6143 110.618 97.0725 110.16 96.7807M110.619 106.242L89.6951 107.909C89.1949 107.618 88.9032 107.076 88.9032 106.492V98.4896C88.8615 98.2812 88.8615 98.0311 88.9032 97.781C89.0699 96.9891 89.7368 96.4473 90.5287 96.4473H90.5704C90.9038 96.4473 91.1956 96.5306 91.4456 96.6973C93.2796 97.4476 95.1552 97.9894 97.0725 98.2395M110.619 106.242V106.492C110.619 106.993 110.369 107.449 109.951 107.693L109.944 107.697L109.938 107.701C109.736 107.836 109.453 107.909 109.201 107.909C108.981 107.909 108.771 107.873 108.564 107.77C108.564 107.769 108.563 107.769 108.563 107.769L102.732 104.812L101.445 104.106C101.445 104.106 101.445 104.106 101.445 104.106C101.033 103.878 100.533 103.741 100.032 103.741H100.031H100.031H100.031H100.031H100.031H100.03H100.03H100.03H100.03H100.029H100.029H100.029H100.029H100.028H100.028H100.028H100.028H100.027H100.027H100.027H100.027H100.027H100.026H100.026H100.026H100.026H100.025H100.025H100.025H100.025H100.025H100.024H100.024H100.024H100.024H100.024H100.023H100.023H100.023H100.023H100.022H100.022H100.022H100.022H100.022H100.021H100.021H100.021H100.021H100.021H100.02H100.02H100.02H100.02H100.02H100.019H100.019H100.019H100.019H100.019H100.018H100.018H100.018H100.018H100.018H100.018H100.017H100.017H100.017H100.017H100.017H100.016H100.016H100.016H100.016H100.016H100.015H100.015H100.015H100.015H100.015H100.015H100.014H100.014H100.014H100.014H100.014H100.014H100.013H100.013H100.013H100.013H100.013H100.012H100.012H100.012H100.012H100.012H100.012H100.011H100.011H100.011H100.011H100.011H100.011H100.01H100.01H100.01H100.01H100.01H100.01H100.009H100.009H100.009H100.009H100.009H100.009H100.009H100.008H100.008H100.008H100.008H100.008H100.008H100.007H100.007H100.007H100.007H100.007H100.007H100.007H100.006H100.006H100.006H100.006H100.006H100.006H100.005H100.005H100.005H100.005H100.005H100.005H100.005H100.004H100.004H100.004H100.004H100.004H100.004H100.004H100.003H100.003H100.003H100.003H100.003H100.003H100.003H100.002H100.002H100.002H100.002H100.002H100.002H100.002H100.002H100.001H100.001H100.001H100.001H100.001H100.001H100.001H100H100H100H100H99.9999H99.9997H99.9996H99.9995H99.9993H99.9992H99.9991H99.9989H99.9988H99.9987H99.9986H99.9984H99.9983H99.9982H99.998H99.9979H99.9978H99.9976H99.9975H99.9974H99.9973H99.9971H99.997H99.9969H99.9967H99.9966H99.9965H99.9964H99.9962H99.9961H99.996H99.9959H99.9957H99.9956H99.9955H99.9954H99.9952H99.9951H99.995H99.9949H99.9947H99.9946H99.9945H99.9944H99.9942H99.9941H99.994H99.9939H99.9937H99.9936H99.9935H99.9934H99.9932H99.9931H99.993H99.9929H99.9928H99.9926H99.9925H99.9924H99.9923H99.9921H99.992H99.9919H99.9918H99.9916H99.9915H99.9914H99.9913H99.9912H99.991H99.9909H99.9908H99.9907H99.9905H99.9904H99.9903H99.9902H99.9901H99.9899H99.9898H99.9897H99.9896H99.9894H99.9893H99.9892H99.9891H99.989H99.9888H99.9887H99.9886H99.9885H99.9883H99.9882H99.9881H99.988H99.9879H99.9877H99.9876H99.9875H99.9874H99.9872H99.9871H99.987H99.9869H99.9867H99.9866H99.9865H99.9864H99.9863H99.9861H99.986H99.9859H99.9858H99.9856H99.9855H99.9854H99.9853H99.9851H99.985H99.9849H99.9848H99.9846H99.9845H99.9844H99.9843H99.9841H99.984H99.9839H99.9837H99.9836H99.9835H99.9834H99.9832H99.9831H99.983H99.9828H99.9827H99.9826H99.9825H99.9823H99.9822H99.9821H99.9819H99.9818H99.9817H99.9816H99.9814H99.9813H99.9812H99.981H99.9809H99.9808H99.9806H99.9805H99.9804H99.9802H99.9801H99.98H99.9798H99.9797H99.9796H99.9794H99.9793H99.9792H99.979H99.9789H99.9787H99.9786H99.9785H99.9783H99.9782H99.9781H99.9779H99.9778H99.9776H99.9775H99.9774H99.9772H99.9771H99.9769H99.9768H99.9767H99.9765H99.9764H99.9762H99.9761H99.9759H99.9758H99.9756H99.9755H99.9754H99.9752H99.9751H99.9749H99.9748H99.9746H99.9745H99.9743H99.9742H99.974H99.9739H99.9737H99.9736H99.9734H99.9733H99.9731H99.973H99.9728H99.9727H99.9725H99.9724H99.9722H99.972H99.9719H99.9717H99.9716H99.9714H99.9713H99.9711H99.9709H99.9708H99.9706H99.9705H99.9703H99.9701H99.97H99.9698H99.9696H99.9695H99.9693H99.9691H99.969H99.9688H99.9686H99.9685H99.9683H99.9681H99.968H99.9678H99.9676H99.9675H99.9673H99.9671H99.9669H99.9668H99.9666H99.9664H99.9662H99.9661H99.9659H99.9657H99.9655H99.9654H99.9652H99.965H99.9648H99.9646H99.9644H99.9643H99.9641H99.9639H99.9637H99.9635H99.9633H99.9632H99.963H99.9628H99.9626H99.9624H99.9622H99.962H99.9618H99.9616H99.9614H99.9613H99.9611H99.9609H99.9607H99.9605H99.9603H99.9601H99.9599H99.9597H99.9595H99.9593H99.9591H99.9589H99.9587H99.9585H99.9582H99.958H99.9578H99.9576H99.9574H99.9572H99.957H99.9568H99.9566H99.9564H99.9561H99.9559H99.9557H99.9555H99.9553H99.9551H99.9548H99.9546H99.9544H99.9542H99.954H99.9537H99.9535H99.9533H99.9531H99.9528H99.9526H99.9524H99.9522H99.9519H99.9517H99.9515H99.9512H99.951H99.9508H99.9505H99.9503H99.9501H99.9498H99.9496H99.9493H99.9491H99.9489H99.9486H99.9484H99.9481H99.9479H99.9476H99.9474H99.9472H99.9469H99.9467H99.9464H99.9462H99.946H99.9457H99.9455H99.9453H99.945H99.9448H99.9446H99.9444H99.9441H99.9439H99.9437H99.9435H99.9432H99.943H99.9428H99.9426H99.9423H99.9421H99.9419H99.9417H99.9415H99.9412H99.941H99.9408H99.9406H99.9404H99.9402H99.94H99.9397H99.9395H99.9393H99.9391H99.9389H99.9387H99.9385H99.9383H99.9381H99.9379H99.9377H99.9375H99.9373H99.9371H99.9369H99.9367H99.9365H99.9363H99.9361H99.9359H99.9357H99.9355H99.9353H99.9351H99.9349H99.9347H99.9345H99.9343H99.9342H99.934H99.9338H99.9336H99.9334H99.9332H99.933H99.9328H99.9327H99.9325H99.9323H99.9321H99.9319H99.9317H99.9316H99.9314H99.9312H99.931H99.9309H99.9307H99.9305H99.9303H99.9302H99.93H99.9298H99.9296H99.9295H99.9293H99.9291H99.9289H99.9288H99.9286H99.9284H99.9283H99.9281H99.9279H99.9278H99.9276H99.9274H99.9273H99.9271H99.9269H99.9268H99.9266H99.9265H99.9263H99.9261H99.926H99.9258H99.9257H99.9255H99.9253H99.9252H99.925H99.9249H99.9247H99.9246H99.9244H99.9242H99.9241H99.9239H99.9238H99.9236H99.9235H99.9233H99.9232H99.923H99.9229H99.9227H99.9226H99.9224H99.9223H99.9221H99.922H99.9218H99.9217H99.9215H99.9214H99.9212H99.9211H99.921H99.9208H99.9207H99.9205H99.9204H99.9202H99.9201H99.9199H99.9198H99.9197H99.9195H99.9194H99.9192H99.9191H99.919H99.9188H99.9187H99.9185H99.9184H99.9183H99.9181H99.918H99.9179H99.9177H99.9176H99.9174H99.9173H99.9172H99.917H99.9169H99.9168H99.9166H99.9165H99.9164H99.9162H99.9161H99.916H99.9158H99.9157H99.9156H99.9155H99.9153H99.9152H99.9151H99.9149H99.9148H99.9147H99.9145H99.9144H99.9143H99.9142H99.914H99.9139H99.9138H99.9136H99.9135H99.9134H99.9133H99.9131H99.913H99.9129H99.9128H99.9126H99.9125H99.9124H99.9122H99.9121H99.912H99.9119H99.9117H99.9116H99.9115H99.9114H99.9112H99.9111H99.911H99.9109H99.9107H99.9106H99.9105H99.9104H99.9102H99.9101H99.91H99.9099H99.9098H99.9096H99.9095H99.9094H99.9093H99.9091H99.909H99.9089H99.9088H99.9086H99.9085H99.9084H99.9083H99.9082H99.908H99.9079H99.9078H99.9077H99.9075H99.9074H99.9073H99.9072H99.9071H99.9069H99.9068H99.9067H99.9066H99.9064H99.9063H99.9062H99.9061H99.906H99.9058H99.9057H99.9056H99.9055H99.9053H99.9052H99.9051H99.905H99.9049H99.9047H99.9046H99.9045H99.9044H99.9042H99.9041H99.904H99.9039H99.9038H99.9036H99.9035H99.9034H99.9033H99.9031H99.903H99.9029H99.9028H99.9026H99.9025H99.9024H99.9023H99.9021H99.902H99.9019H99.9018H99.9016H99.9015H99.9014H99.9013H99.9011H99.901H99.9009H99.9008H99.9006H99.9005H99.9004H99.9003H99.9001H99.9H99.8999H99.8997H99.8996H99.8995H99.8994H99.8992H99.8991H99.899H99.8988H99.8987H99.8986H99.8985H99.8983H99.8982H99.8981H99.8979H99.8978H99.8977H99.8975H99.8974H99.8973H99.8971H99.897H99.8969H99.8967H99.8966H99.8965H99.8963H99.8962H99.8961H99.8959H99.8958H99.8957H99.8955H99.8954H99.8952H99.8951H99.895H99.8948H99.8947H99.8946H99.8944H99.8943H99.8941H99.894H99.8939H99.8937H99.8936H99.8934H99.8933H99.8932H99.893H99.8929H99.8927H99.8926H99.8924H99.8923H99.8921H99.892H99.8919H99.8917H99.8916H99.8914H99.8913H99.8911H99.891H99.8908H99.8907H99.8905H99.8904H99.8902H99.8901H99.8899H99.8898H99.8896H99.8895H99.8893H99.8891H99.889H99.8888H99.8887H99.8885H99.8884H99.8882H99.8881H99.8879H99.8877H99.8876H99.8874H99.8873H99.8871H99.8869H99.8868H99.8866H99.8864H99.8863H99.8861H99.8859H99.8858H99.8856H99.8855H99.8853H99.8851H99.8849H99.8848H99.8846H99.8844H99.8843H99.8841H99.8839H99.8838H99.8836H99.8834H99.8832H99.8831H99.8829H99.8827H99.8825H99.8824H99.8822H99.882H99.8818H99.8816H99.8815H99.8813H99.8811H99.8809H99.8807H99.8805H99.8804H99.8802H99.88H99.8798H99.8796H99.8794H99.8792H99.879H99.8789H99.8787H99.8785H99.8783H99.8781H99.8779H99.8777H99.8775H99.8773H99.8771H99.8769H99.8767H99.8765H99.8763H99.8761H99.8759H99.8757H99.8755H99.8753H99.8751H99.8749H99.8747H99.8745H99.8743H99.8741H99.8738H99.8736H99.8734H99.8732H99.873H99.8728H99.8726H99.8724H99.8721H99.8719H99.8717H99.8715H99.8713H99.871H99.8708H99.8706H99.8704H99.8702H99.8699H99.8697H99.8695H99.8693H99.869H99.8688H99.8686H99.8683H99.8681H99.8679H99.8676H99.8674H99.8672H99.8669H99.8667H99.8665H99.8662H99.866H99.8657H99.8655H99.8653H99.865C99.3616 103.741 98.865 103.878 98.4194 104.101L96.919 104.851L96.917 104.852L91.2088 107.769C91.2084 107.769 91.208 107.769 91.2076 107.77C91.0003 107.873 90.7908 107.909 90.5704 107.909C90.3287 107.909 90.0796 107.841 89.8202 107.693M110.619 106.242L89.8202 107.693M110.16 96.7807C109.868 96.5723 109.576 96.4889 109.243 96.4889C109.035 96.4889 108.785 96.5306 108.576 96.614C106.659 97.4476 104.7 98.0311 102.658 98.2812C101.782 98.4062 100.949 98.4479 100.073 98.4479H99.9901H99.9067C98.9481 98.4479 97.9894 98.3645 97.0725 98.2395M110.16 96.7807L110.026 96.9916L110.014 96.9844L110.16 96.7807ZM97.0725 98.2395L97.0387 98.4872C97.0389 98.4872 97.0392 98.4873 97.0394 98.4873M97.0725 98.2395L97.0401 98.4874C97.0399 98.4874 97.0396 98.4873 97.0394 98.4873M89.8202 107.693C89.4026 107.449 89.1532 106.993 89.1532 106.492V98.4896V98.4648L89.1483 98.4406C89.1139 98.2683 89.1122 98.0513 89.1489 97.8274C89.2934 97.1523 89.8584 96.6973 90.5287 96.6973H90.5704C90.8601 96.6973 91.1024 96.769 91.307 96.9054L91.3278 96.9192L91.351 96.9287C93.2008 97.6855 95.0972 98.2339 97.0394 98.4873M89.8202 107.693L97.0394 98.4873M102.824 118.829V110.366C103.005 110.468 103.176 110.575 103.346 110.697L103.348 110.699L112.434 117.034L112.458 117.05L112.485 117.061C112.911 117.232 113.363 117.371 113.828 117.371C114.419 117.371 115.002 117.189 115.49 116.923L115.49 116.924L115.502 116.916C116.45 116.329 117.037 115.291 117.037 114.161V90.7371C117.037 90.422 117.141 90.1391 117.323 89.8841C120.187 86.0494 121.705 81.4969 121.705 76.8169C121.747 65.6777 113.512 56.5353 102.866 55.0488V13.1706C102.866 6.33719 97.642 0.75 91.1956 0.75H12.4203C5.97387 0.75 0.75 6.33719 0.75 13.1706V118.829C0.75 125.663 5.97387 131.25 12.4203 131.25H91.1539C97.6003 131.25 102.824 125.663 102.824 118.829ZM97.0725 110.146L97.0725 118.829L97.0725 118.832C97.1128 122.334 94.4599 125.165 91.1956 125.165H12.4203C9.1542 125.165 6.46 122.331 6.46 118.829V13.1706C6.46 9.66851 9.1542 6.83512 12.4203 6.83512H91.1539C94.42 6.83512 97.1142 9.66851 97.1142 13.1706V54.9898C97.0713 54.9967 97.0258 55.007 96.9761 55.0224C86.1942 56.4236 77.858 65.6509 77.858 76.7743C77.858 81.4957 79.3755 86.0491 82.2414 89.8432C82.4226 90.098 82.5262 90.3807 82.5262 90.6954V114.12C82.5262 115.248 83.1121 116.285 84.0584 116.873C84.3077 117.038 84.5926 117.13 84.8161 117.203C84.8475 117.213 84.8776 117.223 84.9062 117.233L84.921 117.238L84.9362 117.241L84.9429 117.242C85.1485 117.283 85.3773 117.329 85.6521 117.329C86.3287 117.329 87.0478 117.105 87.6342 116.655L96.0911 110.698L96.0911 110.698L96.0971 110.693C96.4031 110.464 96.7114 110.308 97.0725 110.146ZM97.6142 61.222C98.372 61.0868 99.1602 61.0192 99.9484 61.0192C100.865 61.0192 101.741 61.1026 102.616 61.2276C110.035 62.478 115.537 68.8134 115.537 76.6492C115.537 84.4851 110.035 90.9038 102.616 92.1542C101.741 92.2793 100.865 92.3626 99.9484 92.3626C99.1602 92.3626 98.372 92.295 97.6142 92.1598V92.1542H97.583C97.5098 92.141 97.4368 92.1271 97.3642 92.1125L97.6142 61.222ZM97.0308 61.2693C97.0933 61.2693 97.1454 61.2589 97.1975 61.2485C97.2496 61.2381 97.3017 61.2276 97.3642 61.2276L97.0308 61.2693Z" fill="#239D4A" stroke="#239D4A" stroke-width="0.5"/>
</svg>
