<svg width="24" height="26" viewBox="0 0 24 26" fill="none" xmlns="http://www.w3.org/2000/svg">
<path d="M8.91429 0C11.2785 0 13.5459 0.989056 15.2176 2.74959C16.8894 4.51012 17.8286 6.89792 17.8286 9.38768C17.8286 11.7129 17.0194 13.8504 15.6891 15.4969L16.0594 15.8869H17.1429L24 23.1081L21.9429 25.2745L15.0857 18.0532V16.9123L14.7154 16.5223C13.152 17.9233 11.1223 18.7754 8.91429 18.7754C6.55007 18.7754 4.28269 17.7863 2.61093 16.0258C0.939181 14.2652 0 11.8775 0 9.38768C0 6.89792 0.939181 4.51012 2.61093 2.74959C4.28269 0.989056 6.55007 0 8.91429 0ZM8.91429 2.88852C5.48571 2.88852 2.74286 5.77704 2.74286 9.38768C2.74286 12.9983 5.48571 15.8869 8.91429 15.8869C12.3429 15.8869 15.0857 12.9983 15.0857 9.38768C15.0857 5.77704 12.3429 2.88852 8.91429 2.88852Z" fill="#239D4A"/>
</svg>
