<svg width="103" height="144" viewBox="0 0 103 144" fill="none" xmlns="http://www.w3.org/2000/svg">
<path d="M4.1329 111.21L11.75 111.82L14.1875 131.167C14.4922 133.605 16.7774 135.433 19.2149 135.128C19.3672 135.128 19.3672 135.128 19.5195 135.128L31.5546 133.3V138.937C31.5546 141.527 33.5351 143.507 36.1249 143.507C38.7148 143.507 40.6952 141.527 40.6952 138.937V127.968C40.6952 125.378 38.7148 123.398 36.1249 123.398C35.8202 123.398 35.5155 123.398 35.3632 123.398L22.7187 125.378L20.4336 107.097C20.1289 104.964 18.4531 103.288 16.3203 103.136L11.293 102.679L19.2149 83.4839C19.3672 82.8745 19.5195 82.4175 19.5195 81.8081C19.5195 64.2887 32.621 49.5114 49.9881 47.3786L54.1014 47.0739C73.1443 46.9216 88.8356 62.1559 88.9879 81.3511C89.1403 92.4721 83.9606 102.831 75.1247 109.382C74.0583 110.144 73.2966 111.515 73.2966 112.886V138.784C73.2966 141.374 75.2771 143.355 77.8669 143.355C80.4567 143.355 82.4372 141.374 82.4372 138.784V115.171C101.023 99.6322 103.308 72.0582 87.9215 53.6247C79.5427 43.57 67.2029 37.9333 54.1014 37.9333L48.9217 38.238C27.289 40.8279 10.836 58.9567 10.379 80.7417L0.324323 104.964C-0.589735 107.249 0.476666 109.992 2.91415 110.906C3.37118 111.058 3.67587 111.21 4.1329 111.21Z" fill="#239D4A"/>
<path d="M48.9218 4.57029V27.8788C48.9218 30.4686 50.9022 32.4491 53.492 32.4491C56.0819 32.4491 58.0623 30.4686 58.0623 27.8788V4.57029C58.0623 1.98046 56.0819 0 53.492 0C50.9022 0 48.9218 1.98046 48.9218 4.57029Z" fill="#239D4A"/>
<path d="M95.234 16.9102L79.695 32.4491C78.1716 34.4296 78.6286 37.3241 80.6091 38.8475C82.2848 40.0663 84.4176 40.0663 86.0934 38.8475L101.632 23.3086C103.156 21.3281 102.699 18.4336 100.718 16.9102C99.0426 15.6914 96.9098 15.6914 95.234 16.9102Z" fill="#239D4A"/>
<path d="M5.1993 16.9099C3.52353 18.738 3.52353 21.4802 5.1993 23.3083L20.7383 38.8473C22.7187 40.3707 25.6133 39.9137 27.1367 37.9332C28.3554 36.2575 28.3554 34.1247 27.1367 32.4489L11.7501 16.9099C10.0743 15.0818 7.17976 15.0818 5.1993 16.9099C5.35165 16.9099 5.1993 16.9099 5.1993 16.9099Z" fill="#239D4A"/>
</svg>
