<svg width="229" height="249" viewBox="0 0 229 249" fill="none" xmlns="http://www.w3.org/2000/svg">
<path opacity="0.2" d="M37.86 82.0283L36.6985 98.9559C36.6447 99.7335 36.7894 100.512 37.119 101.218C37.4486 101.924 37.9523 102.535 38.5828 102.994C39.2133 103.452 39.95 103.742 40.7235 103.838C41.4971 103.933 42.2821 103.83 43.005 103.539L58.7345 97.1954L74.4639 103.539C75.1868 103.83 75.9719 103.933 76.7455 103.838C77.519 103.742 78.2556 103.452 78.8861 102.994C79.5167 102.535 80.0204 101.924 80.35 101.218C80.6796 100.512 80.8242 99.7335 80.7704 98.9559L79.5985 82.0335L90.4824 69.0632C90.9833 68.4659 91.324 67.751 91.4727 66.9859C91.6214 66.2207 91.5732 65.4303 91.3325 64.6889C91.0919 63.9475 90.6667 63.2794 90.097 62.7474C89.5272 62.2155 88.8316 61.8371 88.0754 61.6478L71.6102 57.5013L62.6235 43.1277C62.2108 42.4663 61.6365 41.9208 60.9548 41.5426C60.273 41.1644 59.5062 40.9659 58.7266 40.9659C57.947 40.9659 57.1802 41.1644 56.4984 41.5426C55.8167 41.9208 55.2424 42.4663 54.8297 43.1277L45.8272 57.5013L29.3778 61.6162C28.622 61.8061 27.9269 62.1847 27.3574 62.7165C26.7879 63.2484 26.3627 63.9161 26.1216 64.6571C25.8806 65.3981 25.8316 66.1881 25.9792 66.9532C26.1268 67.7183 26.4661 68.4335 26.9655 69.0316L37.86 82.0283ZM49.8633 65.9677C51.0162 65.6799 52.0127 64.9566 52.6435 63.9496L58.7292 54.2271L64.815 63.9496C65.447 64.9577 66.4456 65.6812 67.6004 65.9677L78.7261 68.7531L71.3685 77.5401C70.6102 78.4537 70.2337 79.6247 70.3174 80.809L71.0847 92.2553L60.4477 87.9826C59.3419 87.5361 58.106 87.5361 57.0002 87.9826L46.3843 92.2553L47.1726 80.8143C47.2569 79.6299 46.8803 78.4587 46.1215 77.5454L38.7639 68.7531L49.8633 65.9677ZM228.153 64.6539C227.912 63.9127 227.487 63.245 226.917 62.7136C226.347 62.1822 225.651 61.8046 224.895 61.6162L208.451 57.5013L199.448 43.1277C199.035 42.4663 198.461 41.9208 197.779 41.5426C197.098 41.1644 196.331 40.9659 195.551 40.9659C194.772 40.9659 194.005 41.1644 193.323 41.5426C192.641 41.9208 192.067 42.4663 191.654 43.1277L182.652 57.5013L166.208 61.611C165.452 61.8009 164.757 62.1794 164.187 62.7113C163.618 63.2431 163.193 63.9108 162.952 64.6518C162.71 65.3928 162.661 66.1829 162.809 66.948C162.957 67.7131 163.296 68.4282 163.795 69.0264L174.685 82.0283L173.507 98.9559C173.454 99.7335 173.598 100.512 173.928 101.218C174.257 101.924 174.761 102.535 175.392 102.994C176.022 103.452 176.759 103.742 177.532 103.838C178.306 103.933 179.091 103.83 179.814 103.539L195.543 97.1954L211.273 103.539C211.996 103.82 212.778 103.92 213.548 103.828C214.319 103.737 215.056 103.457 215.693 103.013C216.325 102.557 216.831 101.947 217.163 101.24C217.495 100.534 217.642 99.7554 217.59 98.977L216.418 82.0545L227.302 69.0632C227.804 68.4661 228.146 67.7507 228.295 66.9847C228.444 66.2187 228.395 65.4273 228.153 64.6854V64.6539ZM208.183 77.5454C207.422 78.4579 207.046 79.6297 207.132 80.8143L207.92 92.2553L197.267 87.9826C196.157 87.5475 194.924 87.5475 193.814 87.9826L183.183 92.2711L183.971 80.83C184.057 79.6454 183.68 78.4737 182.92 77.5612L175.562 68.7689L186.688 65.9835C187.84 65.6937 188.836 64.9709 189.468 63.9654L195.554 54.2429L201.64 63.9654C202.273 64.9719 203.271 65.6949 204.425 65.9835L215.545 68.7689L208.183 77.5454ZM104.162 45.6135L102.822 64.9797C102.767 65.7577 102.911 66.5368 103.241 67.2438C103.57 67.9508 104.073 68.5625 104.704 69.0213C105.335 69.4801 106.072 69.771 106.846 69.8665C107.62 69.9621 108.405 69.8593 109.129 69.5677L127.134 62.31L145.139 69.5887C145.862 69.8785 146.646 69.9802 147.419 69.8842C148.192 69.7883 148.928 69.4977 149.558 69.0399C150.188 68.582 150.692 67.9718 151.022 67.2663C151.352 66.5608 151.498 65.7831 151.445 65.006L150.11 45.6345L162.576 30.7512C163.076 30.1535 163.415 29.4388 163.563 28.674C163.711 27.9091 163.662 27.1193 163.421 26.3786C163.179 25.638 162.754 24.9707 162.184 24.4393C161.615 23.908 160.92 23.5301 160.164 23.3411L141.334 18.6112L131.033 2.16176C130.62 1.50033 130.046 0.954832 129.364 0.576637C128.683 0.198442 127.916 0 127.136 0C126.357 0 125.59 0.198442 124.908 0.576637C124.226 0.954832 123.652 1.50033 123.239 2.16176L112.939 18.6112L94.1034 23.3411C93.3472 23.5304 92.6516 23.9088 92.0819 24.4407C91.5121 24.9727 91.087 25.6408 90.8463 26.3822C90.6056 27.1236 90.5574 27.914 90.7061 28.6792C90.8548 29.4443 91.1956 30.1592 91.6964 30.7565L104.162 45.6135ZM116.97 27.0777C118.123 26.7876 119.119 26.0625 119.75 25.0543L127.139 13.2559L134.528 25.0543C135.157 26.0614 136.152 26.7864 137.303 27.0777L150.809 30.4569L141.875 41.1254C141.115 42.0403 140.739 43.2134 140.824 44.3995L141.786 58.2896L128.873 53.0867C127.767 52.6402 126.531 52.6402 125.426 53.0867L112.513 58.2896L113.47 44.3995C113.558 43.2146 113.181 42.0418 112.419 41.1306L103.484 30.4569L116.97 27.0777ZM208.53 182.055C208.195 178.824 206.926 175.76 204.877 173.24C202.828 170.72 200.088 168.852 196.994 167.865C198.681 164.922 199.427 161.533 199.133 158.153C198.659 153.97 196.648 150.111 193.49 147.327C190.332 144.543 186.252 143.032 182.042 143.086H146.558C149.024 134.786 150.124 126.14 149.816 117.487C149.763 107.291 148.959 96.0182 140.136 91.3409C138.327 90.3113 136.306 89.7105 134.229 89.5848C132.151 89.459 130.073 89.8117 128.153 90.6156C125.921 91.6602 123.933 93.1617 122.318 95.023C120.703 96.8842 119.497 99.0638 118.778 101.421C112.471 123.246 106.364 128.78 100.468 134.13C96.1941 137.713 92.5799 142.015 89.7887 146.843C85.6685 154.069 79.6878 157.753 70.4015 158.799H4.59849C3.99441 158.799 3.39613 158.917 2.83791 159.148C2.27968 159.379 1.77247 159.717 1.34532 160.145C0.918176 160.572 0.579485 161.079 0.348634 161.637C0.117784 162.195 -0.000688549 162.794 3.01022e-06 163.398V243.895C0.00139396 245.114 0.48632 246.283 1.3484 247.145C2.21048 248.007 3.37932 248.492 4.59849 248.493H62.9336C66.0697 248.488 69.0904 247.31 71.4026 245.191C73.7149 243.072 75.1517 240.166 75.4309 237.042C81.0279 237.247 82.9987 237.405 83.6662 237.478C99.7267 244.378 122.919 245.755 138.848 245.755C148.308 245.755 155.229 245.272 156.601 245.167H171.127C174.997 245.215 178.746 243.823 181.648 241.262C184.549 238.701 186.396 235.154 186.83 231.308C187.062 228.666 186.6 226.008 185.49 223.599C188.091 223.156 190.548 222.094 192.652 220.501C194.756 218.908 196.445 216.832 197.577 214.448C198.708 212.064 199.249 209.442 199.153 206.805C199.057 204.168 198.327 201.593 197.025 199.298C200.621 198.165 203.721 195.837 205.812 192.701C207.903 189.565 208.86 185.809 208.524 182.055H208.53ZM9.18646 239.296V167.975H44.3977V239.302L9.18646 239.296ZM66.3128 235.938C66.3114 236.828 65.9571 237.682 65.3277 238.311C64.6982 238.941 63.8448 239.295 62.9546 239.296H53.621V167.97H66.3075L66.3128 235.938ZM197.472 188.498C196.787 189.251 195.951 189.853 195.018 190.263C194.086 190.673 193.078 190.883 192.059 190.878H171.71C170.49 190.878 169.321 191.363 168.458 192.225C167.596 193.088 167.112 194.257 167.112 195.477C167.112 196.696 167.596 197.866 168.458 198.728C169.321 199.591 170.49 200.075 171.71 200.075H182.662C183.682 200.078 184.69 200.292 185.622 200.705C186.555 201.118 187.391 201.72 188.078 202.473C188.766 203.226 189.289 204.114 189.615 205.08C189.941 206.046 190.063 207.069 189.973 208.085C189.71 209.98 188.754 211.711 187.289 212.943C185.824 214.175 183.955 214.82 182.042 214.754H162.529C161.309 214.754 160.14 215.238 159.277 216.101C158.415 216.963 157.93 218.133 157.93 219.352C157.93 220.572 158.415 221.741 159.277 222.604C160.14 223.466 161.309 223.951 162.529 223.951H171.726C172.561 223.952 173.387 224.128 174.151 224.466C174.914 224.804 175.599 225.298 176.162 225.915C176.725 226.533 177.152 227.261 177.418 228.052C177.684 228.844 177.782 229.683 177.706 230.515C177.483 232.075 176.688 233.497 175.477 234.506C174.265 235.514 172.723 236.038 171.148 235.975C171.148 235.975 156.207 235.975 156.086 235.975C155.623 236.017 110.889 239.407 86.8982 228.849C86.0153 228.46 85.3952 228.187 75.4887 227.834V167.266C80.1606 166.468 84.5918 164.624 88.4512 161.873C92.3106 159.122 95.4986 155.535 97.7769 151.379C100.102 147.421 103.107 143.903 106.653 140.989C113.17 135.066 120.559 128.344 127.612 104.027C128.29 101.913 129.777 100.152 131.748 99.1294C132.409 98.8594 133.126 98.7537 133.837 98.8214C134.549 98.8891 135.233 99.1283 135.831 99.5183C139.973 101.71 140.561 109.504 140.624 117.581C140.735 138.214 135.852 144.625 135.858 144.625C135.257 145.284 134.861 146.103 134.717 146.983C134.573 147.862 134.688 148.764 135.047 149.58C135.406 150.396 135.994 151.09 136.739 151.578C137.485 152.066 138.356 152.327 139.247 152.33H182.042C183.955 152.261 185.826 152.906 187.291 154.138C188.757 155.37 189.712 157.102 189.973 158.999C190.063 160.015 189.941 161.038 189.615 162.004C189.289 162.97 188.766 163.858 188.078 164.611C187.391 165.364 186.555 165.966 185.622 166.379C184.69 166.791 183.682 167.006 182.662 167.008H173.765C172.545 167.008 171.376 167.493 170.513 168.355C169.651 169.218 169.166 170.387 169.166 171.607C169.166 172.826 169.651 173.996 170.513 174.858C171.376 175.721 172.545 176.205 173.765 176.205H191.434C193.347 176.138 195.217 176.783 196.682 178.014C198.147 179.246 199.102 180.978 199.364 182.874C199.46 183.893 199.341 184.921 199.014 185.89C198.687 186.86 198.16 187.75 197.467 188.503L197.472 188.498ZM30.0557 227.582C29.4127 228.226 28.5934 228.664 27.7013 228.842C26.8091 229.019 25.8844 228.928 25.0439 228.58C24.2035 228.232 23.4851 227.643 22.9797 226.887C22.4742 226.13 22.2044 225.241 22.2044 224.332C22.2044 223.422 22.4742 222.533 22.9797 221.777C23.4851 221.02 24.2035 220.431 25.0439 220.083C25.8844 219.735 26.8091 219.644 27.7013 219.822C28.5934 219.999 29.4127 220.438 30.0557 221.081C30.9174 221.943 31.4014 223.113 31.4014 224.332C31.4014 225.551 30.9174 226.72 30.0557 227.582Z" fill="#239D4A"/>
</svg>
