<svg width="119" height="126" viewBox="0 0 119 126" fill="none" xmlns="http://www.w3.org/2000/svg">
<path d="M105.787 63.045C110.71 57.5775 114.24 52.2 116.308 47.025C118.691 41.0175 118.601 35.7975 116.06 31.545C113.498 27.27 108.822 24.5925 102.167 23.58C96.4575 22.7025 89.8257 22.9275 82.3847 24.255C79.9118 17.415 76.832 11.79 73.1677 7.515C68.8964 2.52 64.1305 0 58.9825 0C53.812 0 49.0461 2.5425 44.7973 7.5375C41.133 11.835 38.0757 17.46 35.6478 24.2775C28.2067 22.9275 21.575 22.68 15.8649 23.5575C9.21073 24.57 4.53479 27.2475 1.97202 31.5225C-0.568277 35.7975 -0.658199 40.995 1.72473 47.0025C3.77045 52.155 7.32237 57.555 12.2906 63.0225C7.32237 68.5125 3.79294 73.89 1.76969 79.02C-0.590757 85.005 -0.478355 90.2025 2.06194 94.455C4.60223 98.73 9.27817 101.43 15.9099 102.465C21.5975 103.365 28.2292 103.118 35.6702 101.768C38.1206 108.585 41.2004 114.188 44.8423 118.485C49.0686 123.457 53.8345 125.978 58.9825 125.978C64.1305 125.978 68.8964 123.457 73.1452 118.485C76.787 114.21 79.8893 108.585 82.3397 101.723C89.7808 103.14 96.39 103.41 102.055 102.533C108.664 101.498 113.34 98.82 115.948 94.5225C118.488 90.2475 118.578 85.05 116.195 79.0425C114.172 73.9125 110.665 68.535 105.787 63.045ZM50.5298 113.423C47.8771 110.025 45.5841 105.503 43.7183 99.945C48.8888 98.55 54.0368 96.75 59.0499 94.6125C64.0856 96.7725 69.2336 98.5725 74.3816 99.945C72.4708 105.503 70.1553 110.025 67.4801 113.423C61.9949 120.375 55.9701 120.375 50.5298 113.423ZM67.4576 12.6225C70.1328 16.0425 72.4483 20.5875 74.3591 26.145C69.5708 27.45 64.4228 29.205 59.0275 31.4325C53.7895 29.295 48.619 27.495 43.6283 26.0775C45.5392 20.5875 47.8322 16.065 50.5074 12.645C55.9701 5.625 61.9724 5.625 67.4576 12.6225ZM88.4544 58.2975C90.5451 59.94 92.4784 61.5375 94.1869 63.0675C93.0179 64.1475 91.804 65.205 90.5451 66.24C89.8482 66.8025 89.1513 67.365 88.4544 67.95C88.5218 66.2175 88.5443 64.5525 88.5443 62.9775C88.5668 61.5375 88.5218 59.9625 88.4544 58.2975ZM87.6002 47.3175C86.9932 41.9175 86.004 36.72 84.6777 31.86C90.6575 30.69 95.9179 30.33 100.324 30.825C104.843 31.3425 107.855 32.805 109.316 35.19C110.8 37.665 110.62 40.8375 108.822 44.865C107.068 48.78 104.123 52.965 100.054 57.3075C96.2102 53.7975 92.0288 50.445 87.6002 47.3175ZM59.0499 85.59C55.498 84.015 51.9911 82.2375 48.574 80.3025C44.6849 78.075 41.3578 76.0275 38.6826 74.25C38.3904 70.965 38.233 67.185 38.233 62.9775C38.233 58.77 38.3904 55.0125 38.6826 51.7725C41.5826 49.86 44.9547 47.835 48.664 45.72C52.0135 43.8975 55.498 42.1425 59.0499 40.5C62.6019 42.165 66.0863 43.92 69.391 45.675C72.8754 47.6775 76.2475 49.7025 79.4173 51.705C79.7095 55.0125 79.8669 58.7925 79.8669 62.9325C79.8669 67.14 79.732 70.9425 79.4173 74.25C76.4723 76.185 73.1227 78.21 69.4584 80.2575C66.1763 82.1925 62.6693 83.97 59.0499 85.59ZM73.7072 38.5875C72.4033 37.845 70.9421 37.08 69.346 36.2475C71.8638 35.325 74.2917 34.515 76.6072 33.84C77.1692 36.225 77.6638 38.655 78.0684 41.1075C76.6971 40.2525 75.2359 39.42 73.7072 38.5875ZM41.4477 33.84C43.8082 34.56 46.1911 35.37 48.619 36.2475C47.1353 37.0125 45.6965 37.7775 44.3252 38.565C42.7966 39.3975 41.3353 40.23 39.9415 41.0625C40.3911 38.61 40.8857 36.2025 41.4477 33.84ZM29.6455 67.8825C27.5323 66.2625 25.599 64.6425 23.8455 63.045C25.6215 61.4475 27.5548 59.85 29.623 58.275C29.578 59.805 29.5556 61.38 29.5556 62.9775C29.5331 64.665 29.578 66.3075 29.6455 67.8825ZM33.3548 31.7475C32.0284 36.765 31.0842 41.94 30.4773 47.205C25.9137 50.4675 21.7099 53.865 17.9556 57.33C13.8867 52.9875 10.9192 48.8025 9.14329 44.865C7.32237 40.8375 7.16501 37.6875 8.69368 35.2125C10.1774 32.7825 13.0999 31.3425 17.6859 30.8025C19.0797 30.645 20.5409 30.555 22.0696 30.555C25.4641 30.555 29.2408 30.96 33.3548 31.7475ZM9.21073 81.18C10.9642 77.265 13.8867 73.08 17.9107 68.7375C21.7099 72.2475 25.9137 75.6675 30.4773 78.93C31.0618 84.1725 32.0284 89.28 33.3323 94.2075C27.375 95.3775 22.1145 95.7375 17.7083 95.2425C13.1673 94.725 10.2448 93.285 8.76112 90.7875C7.25493 88.3575 7.38981 85.2075 9.21073 81.18ZM44.2128 87.39C45.5841 88.2 47.0678 89.01 48.664 89.82C46.1686 90.7425 43.7632 91.53 41.4252 92.205C40.8632 89.82 40.3687 87.4125 39.9865 85.0275C41.3803 85.8825 42.7966 86.67 44.2128 87.39ZM76.6297 92.205C74.2917 91.5525 71.8638 90.7425 69.3685 89.82C70.7848 89.1 72.2685 88.29 73.8421 87.4125C75.2808 86.6025 76.7196 85.7925 78.0684 85.005C77.6413 87.5925 77.1467 90 76.6297 92.205ZM84.6552 94.23C85.9366 89.3025 86.9033 84.1725 87.5327 78.885C92.0738 75.6675 96.2776 72.27 100.032 68.76C104.056 73.1475 107.001 77.3325 108.754 81.2475C110.553 85.275 110.733 88.425 109.249 90.855C107.788 93.2625 104.775 94.7475 100.302 95.265C98.9753 95.4225 97.5815 95.5125 96.1202 95.5125C92.7032 95.49 88.8591 95.0625 84.6552 94.23Z" fill="#239D4A"/>
</svg>
