<svg width="133" height="133" viewBox="0 0 133 133" fill="none" xmlns="http://www.w3.org/2000/svg">
<path d="M133 66.0514C132.842 49.2153 126.508 32.3528 113.499 19.5014C100.938 6.94028 84.2333 0 66.5 0C48.7667 0 32.0625 6.94028 19.5014 19.5014C6.65 32.3528 0.158333 49.2153 0 66.0514V66.5V66.9486C0.158333 83.7847 6.49167 100.647 19.5014 113.499C32.0625 126.06 48.7667 133 66.5 133C84.2333 133 100.938 126.06 113.499 113.499C126.35 100.647 132.868 83.7847 133 66.9486V66.5V66.0514ZM110.675 105.661C106.69 102.125 102.389 99.1694 97.8236 96.6361C99.882 88.6667 101.228 79.6417 101.518 70.1944H125.453C124.714 82.9139 119.7 95.475 110.675 105.661ZM7.54722 70.1944H31.4819C31.7722 79.8 33.1181 88.6667 35.1764 96.6361C30.5847 99.0111 26.3097 102.099 22.325 105.661C13.3 95.475 8.28611 82.9139 7.54722 70.1944ZM22.325 27.3389C26.3097 30.875 30.6111 33.8306 35.1764 36.3639C32.9597 44.3333 31.7722 53.2 31.4819 62.8056H7.54722C8.28611 50.0861 13.3 37.525 22.325 27.3389ZM62.8056 36.6542C56.4458 36.2056 50.0861 34.8861 44.0431 32.3792C48.4764 19.3694 55.1264 10.2125 62.8056 7.99583V36.6542ZM62.8056 44.0431V62.8056H38.8708C39.1611 54.5194 40.1903 46.55 41.9847 39.4514C48.6083 42.1167 55.7069 43.5944 62.8056 44.0431ZM62.8056 70.1944V88.9569C55.7069 89.4056 48.6083 90.8833 41.9583 93.5486C40.1903 86.45 39.1611 78.4806 38.8444 70.1944H62.8056ZM62.8056 96.3458V125.004C55.1264 122.788 48.4764 113.472 44.0431 100.621C50.0861 98.1139 56.4458 96.7944 62.8056 96.3458ZM70.1944 96.3458C76.5542 96.7944 82.9139 98.1139 88.9569 100.621C84.5236 113.631 77.8736 122.788 70.1944 125.004V96.3458ZM70.1944 88.9569V70.1944H94.1292C93.8389 78.4806 92.8097 86.45 91.0153 93.5486C84.3917 90.8833 77.2931 89.4056 70.1944 88.9569ZM70.1944 62.8056V44.0431C77.2931 43.5944 84.3917 42.1167 91.0417 39.4514C92.8097 46.55 93.8389 54.5194 94.1556 62.8056H70.1944ZM70.1944 36.6542V7.96944C77.8736 10.1861 84.5236 19.5014 88.9569 32.3528C82.9139 34.8861 76.5542 36.2056 70.1944 36.6542ZM85.7111 10.6347C92.9417 13.1417 99.5917 16.9944 105.503 22.1667C102.389 24.8319 99.1431 27.1806 95.7389 29.1069C93.1 21.7181 89.6958 15.3583 85.7111 10.6347ZM37.3931 29.1069C33.9889 27.1806 30.5847 24.8319 27.6292 22.1667C33.5403 16.9944 40.1903 13.1417 47.4208 10.6347C43.3042 15.3583 39.9 21.7181 37.3931 29.1069ZM37.3931 103.893C40.0583 111.282 43.4625 117.483 47.2889 122.365C40.0583 119.858 33.4083 116.006 27.4972 110.833C30.5847 108.168 33.8306 105.819 37.3931 103.893ZM95.6069 103.893C99.0111 105.819 102.415 108.168 105.371 110.833C99.4597 116.006 92.8097 119.858 85.5792 122.365C89.6958 117.642 93.1 111.282 95.6069 103.893ZM101.518 62.8056C101.228 53.2 100.04 44.3333 97.8236 36.3639C102.415 33.9889 106.69 30.9014 110.675 27.3389C119.7 37.525 124.556 50.0861 125.453 62.8056H101.518Z" fill="#239D4A"/>
</svg>
