<svg width="62" height="63" viewBox="0 0 62 63" fill="none" xmlns="http://www.w3.org/2000/svg">
<path d="M8.96992 0.625008V0.625018H53.18H53.1804V1.00002L8.96992 0.625008ZM8.96992 0.625008L8.96708 0.625029M8.96992 0.625008L8.96708 0.625029M8.96708 0.625029C6.75771 0.641792 4.64478 1.54157 3.08438 3.12798C1.52418 4.71418 0.641457 6.85945 0.62501 9.10002H0.625M8.96708 0.625029L0.625 9.10002M0.625 9.10002V9.10277M0.625 9.10002V9.10277M0.625 9.10277L0.62499 53.8973L0.62501 53.9M0.625 9.10277L0.62501 53.9M0.62501 53.9C0.641457 56.1406 1.52418 58.2858 3.08438 59.8721C4.64478 61.4585 6.75771 62.3582 8.96708 62.375H8.96992M0.62501 53.9L8.96992 62.375M8.96992 62.375L53.0301 62.375L53.0329 62.375M8.96992 62.375L53.0329 62.375M53.0329 62.375C55.2423 62.3582 57.3552 61.4585 58.9156 59.8721C60.4758 58.2858 61.3585 56.1406 61.375 53.9V53.8973M53.0329 62.375L61.375 53.8973M61.375 53.8973V9.10671V53.8973ZM57.7679 54.0485C57.7565 55.2859 57.2679 56.4682 56.409 57.3414C55.5504 58.2144 54.3903 58.7088 53.1787 58.7203H32.9539V48.7685H53.6316C54.1319 48.7685 54.6104 48.5664 54.9622 48.2087C55.3139 47.8512 55.5103 47.3676 55.5103 46.8647C55.5103 46.3617 55.3139 45.8782 54.9622 45.5207C54.6104 45.163 54.1319 44.9609 53.6316 44.9609H32.9539V38.7619C32.9539 38.259 32.7575 37.7754 32.4059 37.4179C32.054 37.0602 31.5755 36.8581 31.0752 36.8581C30.5749 36.8581 30.0964 37.0602 29.7445 37.4179C29.3929 37.7754 29.1964 38.259 29.1964 38.7619V44.9609H8.5188C8.0185 44.9609 7.53997 45.163 7.18813 45.5207C6.8365 45.8782 6.64004 46.3617 6.64004 46.8647C6.64004 47.3676 6.8365 47.8512 7.18813 48.2087C7.53997 48.5664 8.0185 48.7685 8.5188 48.7685H29.1964V58.7203H8.9717C7.7601 58.7088 6.60003 58.2144 5.74133 57.3414C4.88243 56.4682 4.39385 55.2859 4.38252 54.0485V9.10447C4.39385 7.86705 4.88243 6.68476 5.74133 5.81153C6.60002 4.93853 7.76008 4.44415 8.97168 4.43266H29.1964V14.3844H8.5188C8.0185 14.3844 7.53997 14.5865 7.18813 14.9442C6.8365 15.3017 6.64004 15.7853 6.64004 16.2882C6.64004 16.7912 6.8365 17.2747 7.18813 17.6322C7.53997 17.9899 8.0185 18.1921 8.5188 18.1921H29.1964V24.391C29.1964 24.8939 29.3929 25.3775 29.7445 25.735C30.0964 26.0927 30.5749 26.2948 31.0752 26.2948C31.5755 26.2948 32.054 26.0927 32.4059 25.735C32.7575 25.3775 32.9539 24.8939 32.9539 24.391V18.1921H53.6316C54.1319 18.1921 54.6104 17.9899 54.9622 17.6322C55.3139 17.2748 55.5103 16.7912 55.5103 16.2882C55.5103 15.7853 55.3139 15.3017 54.9622 14.9442C54.6104 14.5865 54.1319 14.3844 53.6316 14.3844H32.9539V4.43266H53.1787C54.3903 4.44415 55.5504 4.93853 56.409 5.81153C57.2679 6.68474 57.7565 7.867 57.7679 9.10439V54.0485Z" fill="#239D4A" stroke="#239D4A" stroke-width="0.75"/>
</svg>
