<svg width="61" height="65" viewBox="0 0 61 65" fill="none" xmlns="http://www.w3.org/2000/svg">
<path d="M2.06188 0.0374886C1.51503 0.0374886 0.990588 0.25347 0.603911 0.637921C0.217233 1.02237 0 1.5438 0 2.08749V62.2968C0 62.8405 0.217233 63.362 0.603911 63.7464C0.990588 64.1309 1.51503 64.3468 2.06188 64.3468H41.4667C41.764 64.4053 42.0707 64.3953 42.3635 64.3176C42.6563 64.24 42.9273 64.0967 43.1558 63.8989C43.3843 63.701 43.5643 63.4537 43.6818 63.1761C43.7994 62.8984 43.8514 62.5976 43.834 62.2968V2.08749C43.8514 1.78671 43.7994 1.48596 43.6818 1.20827C43.5643 0.930586 43.3843 0.683336 43.1558 0.485462C42.9273 0.287588 42.6563 0.144339 42.3635 0.0666905C42.0707 -0.0109582 41.764 -0.0209473 41.4667 0.0374886H2.06188ZM53.9143 0.0374886C52.1382 0.0572214 50.4404 0.767498 49.1844 2.01627C47.9284 3.26504 47.214 4.95306 47.1941 6.71898V55.0839C47.1851 55.3723 47.2423 55.6589 47.3614 55.9221C47.4804 56.1852 47.6583 56.4179 47.8814 56.6024L52.6161 60.7783C52.9833 61.0742 53.4417 61.2357 53.9143 61.2357C54.387 61.2357 54.8453 61.0742 55.2125 60.7783L59.9472 56.7542C60.1703 56.5697 60.3482 56.337 60.4673 56.0739C60.5864 55.8108 60.6436 55.5241 60.6345 55.2357V6.71898C60.6147 4.95306 59.9003 3.26504 58.6443 2.01627C57.3883 0.767498 55.6905 0.0572214 53.9143 0.0374886ZM4.04739 4.06157H39.4048V60.3228H4.04739V4.06157ZM53.9143 4.06157C54.2682 4.05106 54.6205 4.11261 54.9495 4.24244C55.2786 4.37227 55.5775 4.56763 55.8278 4.81652C56.0781 5.06541 56.2746 5.36257 56.4052 5.68973C56.5358 6.01689 56.5977 6.36715 56.5871 6.71898V46.6561H51.4706V6.71898C51.4496 6.04683 51.6932 5.39305 52.1496 4.89675C52.6059 4.40045 53.2391 4.1008 53.9143 4.06157ZM13.2877 12.7171C13.0269 12.7269 12.7706 12.7877 12.5334 12.8961C12.2963 13.0044 12.0829 13.1582 11.9056 13.3486C11.7283 13.539 11.5905 13.7623 11.5 14.0057C11.4096 14.2491 11.3683 14.5079 11.3785 14.7671C11.4172 15.3042 11.6594 15.8067 12.0563 16.1732C12.4532 16.5396 12.9752 16.7426 13.5168 16.7412H29.7063C30.2532 16.7412 30.7776 16.5252 31.1643 16.1408C31.551 15.7563 31.7682 15.2349 31.7682 14.6912C31.7684 14.4255 31.7146 14.1624 31.6101 13.9178C31.5056 13.6732 31.3525 13.4521 31.1599 13.2678C30.9674 13.0834 30.7394 12.9397 30.4896 12.845C30.2399 12.7504 29.9734 12.7069 29.7063 12.7171H13.2877ZM13.2877 30.1801C12.989 30.1222 12.6812 30.1307 12.3863 30.2049C12.0914 30.2792 11.8166 30.4175 11.5818 30.6098C11.3469 30.8022 11.1578 31.0438 11.028 31.3173C10.8982 31.5909 10.8308 31.8897 10.8308 32.1922C10.8308 32.4947 10.8982 32.7934 11.028 33.067C11.1578 33.3406 11.3469 33.5822 11.5818 33.7745C11.8166 33.9668 12.0914 34.1051 12.3863 34.1794C12.6812 34.2537 12.989 34.2621 13.2877 34.2042H29.7063C30.005 34.2621 30.3128 34.2537 30.6077 34.1794C30.9026 34.1051 31.1774 33.9668 31.4122 33.7745C31.6471 33.5822 31.8362 33.3406 31.966 33.067C32.0959 32.7934 32.1632 32.4947 32.1632 32.1922C32.1632 31.8897 32.0959 31.5909 31.966 31.3173C31.8362 31.0438 31.6471 30.8022 31.4122 30.6098C31.1774 30.4175 30.9026 30.2792 30.6077 30.2049C30.3128 30.1307 30.005 30.1222 29.7063 30.1801H13.8222H13.2877ZM13.2877 47.6431C12.989 47.5852 12.6812 47.5936 12.3863 47.6679C12.0914 47.7422 11.8166 47.8805 11.5818 48.0728C11.3469 48.2651 11.1578 48.5068 11.028 48.7803C10.8982 49.0539 10.8308 49.3527 10.8308 49.6552C10.8308 49.9576 10.8982 50.2564 11.028 50.53C11.1578 50.8035 11.3469 51.0452 11.5818 51.2375C11.8166 51.4298 12.0914 51.5681 12.3863 51.6424C12.6812 51.7167 12.989 51.7251 13.2877 51.6672H29.7063C30.005 51.7251 30.3128 51.7167 30.6077 51.6424C30.9026 51.5681 31.1774 51.4298 31.4122 51.2375C31.6471 51.0452 31.8362 50.8035 31.966 50.53C32.0959 50.2564 32.1632 49.9576 32.1632 49.6552C32.1632 49.3527 32.0959 49.0539 31.966 48.7803C31.8362 48.5068 31.6471 48.2651 31.4122 48.0728C31.1774 47.8805 30.9026 47.7422 30.6077 47.6679C30.3128 47.5936 30.005 47.5852 29.7063 47.6431H13.2877ZM50.707 50.6802H56.0526V54.1728L53.3798 56.4505L51.4706 54.1728L50.707 50.6802Z" fill="#239D4A"/>
</svg>
