<svg width="60" height="66" viewBox="0 0 60 66" fill="none" xmlns="http://www.w3.org/2000/svg">
<path d="M57.4383 0.700001H57.4384C57.9334 0.700246 58.4064 0.902248 58.754 1.25897C59.1014 1.61542 59.2955 2.09721 59.2962 2.59818L59.2962 2.59861V63.3998V63.4C59.296 63.9013 59.1021 64.3835 58.7546 64.7404C58.4069 65.0975 57.9337 65.2998 57.4384 65.3H57.4383H2.5542H2.5533C2.05882 65.2985 1.58673 65.0957 1.24001 64.7388C0.893547 64.382 0.70024 63.9005 0.700007 63.4L0.700007 63.3998L0.700007 14.4781V14.4777H1.00001C0.99936 14.2503 1.04616 14.0253 1.13726 13.818C1.22836 13.6107 1.36164 13.4258 1.52813 13.2759L57.4383 0.700001ZM57.4383 0.700001H13.9233M57.4383 0.700001L1.31874 13.0608L12.5108 1.36512C12.6834 1.15854 12.8977 0.991832 13.1396 0.876852C13.3849 0.760237 13.6523 0.699778 13.9233 0.700001M13.9233 0.700001C13.9234 0.700001 13.9234 0.700001 13.9234 0.700001L13.9232 0.99947V0.700001H13.9233ZM55.5811 4.49954V54.9053H4.41518V16.3818H13.9232H13.9233C14.1688 16.3816 14.4115 16.3318 14.6377 16.2353C14.8639 16.1388 15.0688 15.9977 15.2409 15.8204C15.413 15.6431 15.549 15.4332 15.6414 15.2028C15.7338 14.9725 15.7809 14.726 15.7804 14.4774V14.4777H15.4806L15.7804 14.477L55.5811 4.49954ZM55.5811 4.49954H15.7804H55.5811ZM27.3728 32.1509C27.322 33.5723 26.9339 34.9566 26.2456 36.1846C25.5334 35.3055 24.6778 34.5591 23.7163 33.979C24.1126 33.1993 24.3238 32.3332 24.3311 31.4516C24.3392 30.4697 24.0941 29.5027 23.62 28.6488C23.1459 27.7948 22.4595 27.084 21.6298 26.5894C20.8001 26.0949 19.857 25.8344 18.8966 25.8352C17.9361 25.8344 16.9931 26.0949 16.1634 26.5894C15.3337 27.084 14.6473 27.7948 14.1732 28.6488C13.6991 29.5027 13.454 30.4697 13.4621 31.4516C13.4693 32.3332 13.6806 33.1993 14.0769 33.9791C13.1155 34.5593 12.2599 35.3057 11.5476 36.1847C10.8593 34.9567 10.4712 33.5723 10.4204 32.1509C10.3644 30.5836 10.7206 29.0301 11.4511 27.6539C12.1816 26.2779 13.259 25.1304 14.5692 24.3314C15.8793 23.5324 17.3741 23.1111 18.8966 23.1111C20.419 23.1111 21.9139 23.5324 23.224 24.3314C24.5342 25.1304 25.6116 26.2779 26.3421 27.6539C27.0726 29.0301 27.4288 30.5836 27.3728 32.1509ZM17.1725 36.6945C18.2918 37.0803 19.5036 37.0803 20.6229 36.6945C21.8737 37.0901 22.9581 37.9079 23.701 39.0147C22.2886 40.0121 20.6139 40.5474 18.8973 40.5474C17.1808 40.5474 15.5061 40.0121 14.0937 39.0147C14.8369 37.9079 15.9215 37.0901 17.1725 36.6945ZM20.6178 31.4072L20.6178 31.4088C20.6174 31.7614 20.5153 32.1053 20.3251 32.397C20.135 32.6887 19.8658 32.9146 19.5525 33.0477C19.2393 33.1807 18.8953 33.2152 18.5634 33.1473C18.2315 33.0793 17.9256 32.9116 17.6847 32.6641C17.4437 32.4165 17.2787 32.1001 17.2118 31.7546C17.1448 31.4089 17.1792 31.0508 17.3102 30.7257C17.4412 30.4006 17.6625 30.124 17.945 29.9299C18.2274 29.7359 18.5586 29.6327 18.8968 29.6324L18.8966 29.3324L18.8986 29.6324C19.1237 29.6309 19.347 29.6754 19.5557 29.7634C19.7644 29.8514 19.9545 29.9813 20.1149 30.1461C20.2752 30.3108 20.4025 30.5071 20.489 30.7237C20.5755 30.9403 20.6194 31.1726 20.6178 31.4072ZM4.41141 61.5005V58.7049H55.5845L55.5814 61.5005H4.41141ZM25.6766 21.4185C23.6704 20.0418 21.3109 19.3066 18.8966 19.3067C15.659 19.307 12.5558 20.6281 10.2691 22.9769C7.98261 25.3254 6.69949 28.509 6.69949 31.8268C6.69949 34.3013 7.41389 36.7209 8.75322 38.7796C10.0926 40.8384 11.9972 42.4442 14.227 43.3928C16.4569 44.3414 18.9111 44.5897 21.2788 44.1059C23.6466 43.6222 25.8203 42.4283 27.5256 40.6767C29.2309 38.9252 30.3912 36.6946 30.8612 34.2674C31.3312 31.8402 31.0899 29.3244 30.1675 27.0376C29.2452 24.7508 27.6827 22.795 25.6766 21.4185ZM35.5581 20.8736C34.9603 20.8736 34.4921 21.1105 34.1777 21.4787C33.8688 21.8406 33.7219 22.3127 33.7219 22.7733C33.7219 23.234 33.8688 23.7061 34.1777 24.068C34.4921 24.4362 34.9603 24.6731 35.5581 24.6731H51.4358C52.0336 24.6731 52.5018 24.4362 52.8161 24.068C53.125 23.7061 53.272 23.234 53.272 22.7733C53.272 22.3127 53.125 21.8406 52.8161 21.4787C52.5018 21.1105 52.0336 20.8736 51.4358 20.8736H35.5581ZM35.5581 38.9921C34.9603 38.9921 34.4921 39.2291 34.1777 39.5974C33.8688 39.9594 33.7219 40.4315 33.7219 40.8923C33.7219 41.353 33.8688 41.8252 34.1777 42.1871C34.4921 42.5555 34.9603 42.7924 35.5581 42.7924H51.4358C52.0336 42.7924 52.5018 42.5555 52.8162 42.1871C53.1251 41.8252 53.272 41.353 53.272 40.8923C53.272 40.4315 53.1251 39.9594 52.8162 39.5974C52.5018 39.2291 52.0336 38.9921 51.4358 38.9921H35.5581ZM35.5581 29.9329C34.9603 29.9329 34.4921 30.1697 34.1777 30.538C33.8688 30.8999 33.7219 31.372 33.7219 31.8326C33.7219 32.2933 33.8688 32.7654 34.1777 33.1272C34.4921 33.4955 34.9603 33.7324 35.5581 33.7324H51.4358C52.0336 33.7324 52.5018 33.4955 52.8161 33.1272C53.125 32.7654 53.272 32.2933 53.272 31.8326C53.272 31.372 53.125 30.8999 52.8161 30.538C52.5018 30.1697 52.0336 29.9329 51.4358 29.9329H35.5581ZM12.0652 7.24986V12.5783H6.96551L12.0652 7.24986Z" fill="#239D4A" stroke="#239D4A" stroke-width="0.6"/>
</svg>
