<?xml version="1.0" encoding="UTF-8"?><!DOCTYPE svg PUBLIC "-//W3C//DTD SVG 1.1//EN" "http://www.w3.org/Graphics/SVG/1.1/DTD/svg11.dtd"><svg xmlns="http://www.w3.org/2000/svg" xmlns:xlink="http://www.w3.org/1999/xlink"><defs>
        <clipPath id="clip0_108:1539">
            <path transform="translate(95 2)" d="M0 0h127v14H0z"/>
        </clipPath>
    </defs><symbol id="ico-mono-burger" viewBox="0 0 42 24">
    <path d="M42 8.842c0-2.345-2.212-4.594-6.15-6.252C31.91.932 26.57 0 21 0S10.089.932 6.15 2.59C2.213 4.248 0 6.497 0 8.842h42z"/>
    <path d="M2.754 11.368h36.492v1.263H2.754z"/>
    <path d="M42 15.158c0 2.345-2.212 4.594-6.15 6.252C31.91 23.068 26.57 24 21 24s-10.911-.932-14.85-2.59C2.213 19.752 0 17.503 0 15.158h42z"/>
</symbol><symbol id="ico-mono-facebook" viewBox="0 0 23 42">
    <path d="M21.65.009L16.253 0c-6.063 0-9.98 4.023-9.98 10.25v4.726H.848a.849.849 0 00-.848.85v6.848c0 .469.38.849.848.849h5.426V40.8c0 .47.38.85.848.85h7.079c.469 0 .848-.38.848-.85V23.523h6.344c.468 0 .848-.38.848-.85l.003-6.847a.85.85 0 00-.85-.85H15.05V10.97c0-1.926.459-2.903 2.965-2.903l3.634-.001c.469 0 .849-.38.849-.85V.858a.85.85 0 00-.848-.85z"/>
</symbol><symbol id="ico-mono-footer-logo" viewBox="0 0 222 18">
    <path d="M6.018 4.31c-1.17 0-2.095.39-2.774 1.172-.674.782-1.011 1.86-1.011 3.236 0 1.37.326 2.435.978 3.195.653.755 1.583 1.133 2.791 1.133.755 0 1.604-.133 2.548-.397v1.084c-.739.275-1.65.413-2.734.413-1.57 0-2.78-.475-3.632-1.424-.852-.96-1.278-2.313-1.278-4.06a6.596 6.596 0 01.348-2.233c.242-.685.585-1.265 1.027-1.74a4.476 4.476 0 011.626-1.1c.642-.264 1.35-.393 2.127-.388 1.127 0 2.104.205 2.929.615l-.526 1.06a5.572 5.572 0 00-2.419-.567zm8.306 1.569c.367 0 .685.027.955.08l-.162 1.125a4.088 4.088 0 00-.874-.105c-.647 0-1.2.261-1.658.784-.458.523-.687 1.176-.687 1.958V14h-1.214V6.024h1.003l.138 1.472h.057c.296-.523.652-.922 1.067-1.197.42-.28.88-.42 1.375-.42zm5.515 8.267c-1.181 0-2.114-.359-2.8-1.076-.679-.718-1.018-1.718-1.018-3.001 0-1.284.315-2.303.946-3.058.642-.755 1.478-1.132 2.508-1.132 1.035 0 1.844.329 2.426.987.583.657.874 1.523.874 2.596v.768h-5.5c.026.934.264 1.645.711 2.136.448.485 1.092.728 1.934.728.846 0 1.682-.18 2.507-.542v1.076a6.043 6.043 0 01-1.205.396c-.388.081-.85.122-1.383.122zm1.642-4.902c0-.76-.17-1.343-.51-1.748-.34-.404-.828-.606-1.464-.606-.63 0-1.14.207-1.529.623-.383.415-.607.992-.671 1.73h4.174zm4.015 2.564c0 .431.132.763.397.995.264.232.633.348 1.108.348.76 0 1.353-.205 1.78-.615.425-.415.639-.995.639-1.74v-.72l-1.206.05c-.96.037-1.653.188-2.079.452-.426.265-.639.674-.639 1.23zM30.633 14h-.898l-.243-1.133h-.056c-.4.497-.796.834-1.19 1.012-.393.178-.886.267-1.48.267-.798 0-1.42-.205-1.868-.615-.442-.41-.664-.99-.664-1.74 0-1.606 1.287-2.45 3.859-2.531l1.359-.04v-.494c0-.636-.135-1.1-.405-1.391-.27-.297-.72-.445-1.35-.445-.626 0-1.36.202-2.2.606l-.373-.922a5.56 5.56 0 012.702-.687c.96 0 1.666.213 2.12.639.458.426.687 1.103.687 2.03V14zm3.791-2.346c0 .48.11.85.332 1.108.226.26.534.389.922.389.394 0 .766-.049 1.116-.146v.922c-.124.06-.32.11-.59.154-.264.043-.491.065-.68.065-1.542 0-2.313-.812-2.313-2.435V6.963h-1.14V6.38l1.14-.501.51-1.707h.703v1.852h2.314v.939h-2.314v4.691zm7.337 2.492c-1.181 0-2.114-.359-2.8-1.076-.679-.718-1.018-1.718-1.018-3.001 0-1.284.315-2.303.946-3.058.642-.755 1.477-1.132 2.508-1.132 1.035 0 1.844.329 2.426.987.583.657.874 1.523.874 2.596v.768h-5.5c.026.934.264 1.645.711 2.136.448.485 1.092.728 1.933.728.847 0 1.683-.18 2.508-.542v1.076a6.043 6.043 0 01-1.205.396c-.389.081-.85.122-1.383.122zm1.642-4.902c0-.76-.17-1.343-.51-1.748-.34-.404-.828-.606-1.464-.606-.631 0-1.14.207-1.529.623-.383.415-.607.992-.671 1.73h4.174zm4.719-1.53c-.378.546-.566 1.325-.566 2.339 0 1.013.186 1.782.558 2.305.377.518.927.776 1.65.776.825 0 1.424-.223 1.796-.67.372-.454.558-1.18.558-2.177v-.25c0-1.138-.189-1.947-.566-2.427-.378-.48-.98-.72-1.804-.72-.707 0-1.249.275-1.626.825zm3.996 5.218c-.56.81-1.38 1.214-2.46 1.214-1.072 0-1.9-.356-2.483-1.068-.582-.723-.873-1.74-.873-3.05 0-1.31.291-2.33.873-3.057.583-.728 1.405-1.092 2.468-1.092 1.067 0 1.887.39 2.459 1.173h.097l-.057-.575-.024-.558V2.675h1.205V14h-.979l-.161-1.068h-.065zm9.264-5.848c.556-.798 1.375-1.197 2.46-1.197 1.083 0 1.913.361 2.49 1.084.578.717.866 1.73.866 3.041 0 1.31-.294 2.327-.882 3.05-.582.722-1.41 1.084-2.483 1.084-1.068 0-1.885-.391-2.451-1.173h-.089L61.034 14h-.865V2.675h1.213v2.75c0 .648-.019 1.2-.057 1.659h.057zm4.012 5.25c.367-.54.55-1.324.55-2.354 0-1.036-.183-1.807-.55-2.314-.361-.507-.94-.76-1.739-.76-.793 0-1.37.235-1.731.704s-.542 1.267-.542 2.394c0 1.122.186 1.925.558 2.41.372.48.97.72 1.796.72.739 0 1.292-.267 1.658-.8zm3.53 5.25c-.361 0-.725-.041-1.092-.122v-.97c.28.059.58.088.898.088.83 0 1.423-.466 1.78-1.399l.444-1.14-3.22-8.017h1.295l1.747 4.546c.394 1.079.631 1.828.712 2.249h.057c.07-.275.197-.688.38-1.238.189-.55.855-2.402 1.998-5.557h1.294l-3.43 9.084c-.334.89-.728 1.524-1.18 1.901-.454.383-1.014.574-1.683.574z"/>
    <g clip-path="url(#clip0_108:1539)">
        <path d="M112.389 11.3v.841c0 2.42-1.242 3.86-4.173 3.86h-12.92a.257.257 0 01-.223-.075.262.262 0 01-.073-.225V2.3a.264.264 0 01.176-.289.258.258 0 01.12-.01h12.787c2.635 0 3.813 1.122 3.813 3.601v.359c0 1.279-.356 2.18-1.319 2.658v.28c1.264.46 1.812 1.303 1.812 2.402zm-4.703-6.54h-9.553v2.819h9.553c.63 0 1.16-.078 1.16-1.2v-.46c0-1.16-.53-1.16-1.16-1.16zm1.635 6.521c0-.841-.434-1.182-1.32-1.182h-9.868v3.123H108c.886 0 1.32-.28 1.32-1.159v-.782z"/>
        <path d="M131.044 13.521v2.162a.289.289 0 01-.016.127.29.29 0 01-.299.195h-15.636a.29.29 0 01-.3-.195.304.304 0 01-.015-.127V2.322a.29.29 0 01.315-.322h2.521c.196 0 .296.12.296.322v10.9h12.819a.274.274 0 01.228.074.285.285 0 01.087.225z"/>
        <path d="M143.113 13.222h-8.973V16h8.973v-2.778z"/>
        <path d="M130.838 7.602h12.28v2.801h-12.28"/>
        <path d="M143.113 2h-16.07v2.778h16.07V2z"/>
        <path d="M195.386 13.222h-8.973V16h8.973v-2.778z"/>
        <path d="M186.413 7.602h12.275v2.801h-12.275"/>
        <path d="M202.483 2h-16.07v2.778h16.07V2z"/>
        <path d="M145.579 15.683V2.322a.303.303 0 01.015-.127.29.29 0 01.3-.195h2.936c.178 0 .256.078.434.24l10.398 10.002h.274v-9.92c0-.198.101-.322.297-.322h2.521a.295.295 0 01.232.087.29.29 0 01.067.108c.015.04.02.084.016.127v13.36a.289.289 0 01-.016.128.29.29 0 01-.299.195h-2.937c-.178 0-.255-.079-.433-.24L148.986 5.762h-.274v9.92c0 .203-.101.323-.297.323h-2.521a.292.292 0 01-.315-.322z"/>
        <path d="M183.947 5.68v6.664c0 2.3-1.064 3.679-3.507 3.679h-14.494a.29.29 0 01-.3-.195.304.304 0 01-.015-.127V2.322a.303.303 0 01.015-.127.29.29 0 01.3-.195h14.494c2.448 0 3.507 1.38 3.507 3.68zm-3.096.202c0-.823-.37-1.122-1.096-1.122h-10.992v8.462h10.992c.731 0 1.082-.28 1.082-1.1l.014-6.24z"/>
        <path d="M221.553 16h-2.284a.65.65 0 01-.552-.34l-2.206-3.303h-8.43v3.321c0 .202-.1.322-.297.322h-2.52a.29.29 0 01-.3-.195.288.288 0 01-.015-.127V2.322a.288.288 0 01.082-.235.294.294 0 01.233-.087h12.96c2.443 0 3.507 1.38 3.507 3.68v3.058c0 1.72-.612 2.92-1.991 3.399l2.187 3.362c.196.262-.041.501-.374.501zm-13.472-6.439h9.416c.731 0 1.106-.28 1.106-1.1v-2.58c0-.818-.375-1.098-1.106-1.098h-9.416V9.56z"/>
    </g>
    
</symbol><symbol id="ico-mono-instagram" viewBox="0 0 42 42">
    <path d="M41.558 12.26c-.101-2.22-.454-3.736-.969-5.063a10.226 10.226 0 00-2.404-3.695 10.218 10.218 0 00-3.691-2.407c-1.326-.516-2.84-.868-5.06-.969C27.213.024 26.503 0 20.843 0s-6.37.024-8.593.125c-2.219.102-3.733.455-5.06.97A10.213 10.213 0 003.5 3.502a10.227 10.227 0 00-2.405 3.695C.579 8.524.227 10.04.126 12.26.024 14.486 0 15.196 0 20.86c0 5.667.024 6.378.126 8.602.101 2.22.453 3.737.969 5.064a10.224 10.224 0 002.404 3.695A10.212 10.212 0 007.19 40.63c1.326.516 2.84.868 5.06.97 2.222.101 2.932.125 8.592.125s6.37-.024 8.593-.125c2.219-.102 3.733-.454 5.06-.97a10.661 10.661 0 006.094-6.102c.516-1.327.868-2.843.97-5.064.1-2.225.125-2.935.125-8.6 0-5.667-.025-6.377-.126-8.602zm-3.751 17.032c-.093 2.035-.433 3.14-.718 3.874a6.905 6.905 0 01-3.955 3.96c-.735.285-1.838.625-3.87.718-2.197.1-2.857.121-8.422.121-5.566 0-6.225-.02-8.422-.121-2.032-.093-3.136-.433-3.87-.718a6.459 6.459 0 01-2.397-1.561 6.464 6.464 0 01-1.559-2.399c-.285-.735-.625-1.84-.717-3.873-.1-2.2-.122-2.86-.122-8.43 0-5.571.022-6.23.122-8.431.093-2.034.432-3.139.717-3.874a6.469 6.469 0 011.56-2.399A6.452 6.452 0 018.55 4.6c.734-.286 1.838-.626 3.87-.719 2.197-.1 2.857-.121 8.422-.121s6.224.021 8.422.122c2.032.092 3.135.432 3.87.718a6.462 6.462 0 012.396 1.56 6.461 6.461 0 011.559 2.4c.285.734.625 1.839.718 3.873.1 2.2.121 2.86.121 8.43s-.021 6.23-.121 8.43z"/>
    <path d="M20.843 10.15c-5.91 0-10.702 4.796-10.702 10.713 0 5.916 4.791 10.712 10.702 10.712s10.703-4.796 10.703-10.712c0-5.917-4.792-10.714-10.703-10.714zm0 17.666a6.95 6.95 0 01-6.947-6.954 6.95 6.95 0 016.947-6.954 6.95 6.95 0 016.947 6.954 6.95 6.95 0 01-6.947 6.955z"/>
    <path d="M34.47 9.726a2.502 2.502 0 11-5.001 0 2.502 2.502 0 115.002 0z"/>
</symbol><symbol id="ico-mono-logo" viewBox="0 0 62 55">
    <path d="M35.033 14.24a12.205 12.205 0 00-5.21.63c-1.637.588-3.192 1.512-4.41 2.73 1.386-1.05 2.899-1.89 4.537-2.352 1.638-.462 3.36-.672 5.04-.462 3.403.294 6.553 2.058 8.822 4.663a11.694 11.694 0 00-3.78-3.529 11.593 11.593 0 00-5-1.68z"/>
    <path d="M34.907 16.76c2.226.21 4.326 1.176 6.048 2.646a10.538 10.538 0 00-2.73-1.974c-1.008-.504-2.142-.798-3.276-.924a10.263 10.263 0 00-3.403.21 9.317 9.317 0 00-3.108 1.344 10.87 10.87 0 016.469-1.302z"/>
    <path d="M30.916 18.945c1.302-.378 2.688-.462 4.033-.294 1.344.168 2.604.672 3.78 1.386-.546-.42-1.134-.798-1.764-1.05-.63-.294-1.302-.462-2.017-.546-1.344-.21-2.772-.085-4.032.504z"/>
    <path d="M31.294 6.763c.672.462 1.386.924 2.1 1.344-.336.168-.63.294-.966.504-.42.21-.798.546-1.176.84l-.126.084.084.084c.21.126.42.294.588.462.168.168.336.336.504.546l.042.042.042-.042c.294-.42.546-.798.798-1.218-.378 1.008-.756 2.016-1.092 3.025a14.206 14.206 0 00-2.94.672c-1.849.63-3.529 1.68-4.957 2.982 3.024-2.394 6.889-3.654 10.67-3.276 1.89.126 3.738.672 5.46 1.512s3.235 2.016 4.537 3.444a14.049 14.049 0 00-4.41-3.738 14.587 14.587 0 00-5.125-1.596 34.957 34.957 0 00-1.009-2.689c.21.336.42.63.672.924l.084.126.084-.084c.127-.21.294-.42.462-.588.169-.168.337-.336.547-.504l.042-.042-.042-.042a57.29 57.29 0 00-2.059-1.344c.336-.168.63-.294.967-.504.42-.21.798-.546 1.176-.84l.126-.084-.084-.084a3.175 3.175 0 01-.588-.462 6.46 6.46 0 01-.505-.546l-.042-.042-.041.042a35.733 35.733 0 00-1.345 2.1c-.168-.336-.294-.63-.504-.966-.21-.42-.546-.798-.84-1.176l-.084-.126-.084.084c-.126.21-.294.42-.462.588a6.46 6.46 0 01-.546.504l-.042.042.084.042zm1.05 3.738c-.168-.168-.336-.294-.504-.462-.126-.126-.252-.294-.378-.462.42-.168.798-.294 1.176-.546.21-.126.378-.252.588-.378-.294.63-.588 1.218-.882 1.848zm2.646 1.807h-2.52c.294-1.05.588-2.059.798-3.109.126-.21.294-.42.42-.672.126.294.252.588.42.84.336.966.588 1.974.883 2.94zm1.177-2.773c-.168.168-.294.336-.462.504-.127.126-.294.252-.462.378-.169-.42-.295-.798-.547-1.176-.126-.21-.252-.378-.378-.588.63.294 1.218.588 1.849.882zM35.2 5.713c.168.168.336.294.505.462.126.126.252.294.378.462-.42.168-.798.294-1.177.546-.21.126-.378.252-.588.378.294-.63.588-1.218.883-1.848zm-3.36.504c.126-.126.294-.252.462-.378.168.42.294.798.546 1.176.126.21.252.378.378.588-.588-.294-1.218-.63-1.848-.924.126-.168.294-.336.462-.462z"/>
    <path d="M16.55 9.577c-.042.168-.21.42-.462.672-.588.63-1.428.714-2.184.042-.714-.672-.714-1.596-.084-2.268.252-.294.504-.378.588-.42l.168.294c-.168.042-.336.168-.504.378-.504.504-.504 1.176.084 1.722.546.504 1.176.546 1.722 0a1.29 1.29 0 00.336-.546l.336.126z"/>
    <path d="M15.836 6.259l.798 1.008 1.176-.924-.798-1.008.294-.252 1.89 2.394-.294.252-.882-1.134-1.176.924.882 1.134-.294.252-1.89-2.394.294-.252z"/>
    <path d="M21.885 4.075c.504.924.252 1.722-.462 2.1-.714.378-1.512.126-1.974-.672-.463-.84-.253-1.68.462-2.1.714-.379 1.512-.127 1.974.672zm-2.058 1.218c.336.588.924.924 1.47.588.546-.294.588-.966.21-1.596-.294-.547-.882-.925-1.47-.589-.546.337-.546 1.009-.21 1.597z"/>
    <path d="M25.623 2.562c.378 1.008-.042 1.723-.756 2.017-.756.294-1.512-.126-1.848-.967-.336-.924 0-1.722.756-2.016.84-.294 1.554.126 1.848.966zm-2.184.882c.21.63.756 1.05 1.344.84.588-.21.714-.882.462-1.554-.21-.588-.714-1.05-1.344-.84-.588.252-.714.924-.462 1.554z"/>
    <path d="M27.136 3.318c.21.084.462.084.756.042.378-.084.588-.336.504-.63-.042-.294-.252-.42-.715-.462-.546-.084-.882-.252-.966-.672-.084-.462.21-.882.799-1.008a1.35 1.35 0 01.714 0l-.042.336a.916.916 0 00-.588 0c-.42.084-.505.378-.462.588.041.294.294.378.714.462.546.084.84.252.966.714.084.462-.168.925-.84 1.093-.294.084-.63.042-.799-.042l-.041-.42z"/>
    <path d="M31.546 1.638l-1.176.126.126 1.092 1.302-.126.042.336-1.722.168-.294-3.066L31.462 0l.042.336-1.26.126.084.966 1.176-.126.042.336z"/>
    <path d="M35.41.042l-.125 1.26 1.47.168.126-1.26.378.042-.336 3.066-.378-.042.168-1.428-1.47-.168-.169 1.428-.377-.042L35.032 0l.379.042z"/>
    <path d="M40.157 2.562l-1.176-.294-.252 1.092 1.302.337-.084.336-1.68-.42.756-2.983 1.596.42-.084.336-1.218-.294-.252.924 1.176.294-.084.252z"/>
    <path d="M41.964 3.654l-.673.757-.378-.168 2.1-2.479.463.168-.168 3.235-.378-.168.042-1.008-1.008-.337zm1.05.084l.042-.924c0-.21.042-.378.042-.588-.126.168-.21.294-.336.462l-.589.714.84.336z"/>
    <path d="M45.786 3.066l.336.21-1.344 2.395 1.134.63-.168.294-1.47-.84 1.512-2.689z"/>
    <path d="M48.516 5.125l-.756-.546.21-.294 1.848 1.302-.21.294-.756-.546-1.596 2.226-.336-.252 1.596-2.184z"/>
    <path d="M51.205 6.805l-.883.924 1.093 1.008.882-.924.294.294-2.1 2.226-.294-.294.966-1.05-1.092-1.008-.967 1.05-.294-.252 2.1-2.226.295.252z"/>
    <path d="M51.793 11.888l1.008-.799.756-1.848.294.336-.378.882c-.126.252-.21.42-.294.63.21-.042.42-.084.672-.168l.924-.168.294.336-2.016.294-1.008.799-.252-.294z"/>
    <path d="M18.104 47.802c-.672.798-1.512.84-2.142.336-.63-.504-.672-1.344-.084-2.058.63-.756 1.47-.882 2.1-.336.714.546.714 1.386.126 2.058zm-1.848-1.428c-.42.504-.504 1.176-.042 1.596.504.378 1.134.168 1.554-.378.378-.462.546-1.176.042-1.596-.504-.42-1.134-.168-1.554.378z"/>
    <path d="M19.238 49.273l-.756.672-.336-.21 2.479-2.1.42.252-.672 3.15-.378-.21.21-1.008-.966-.546zm1.05.252l.21-.924c.043-.21.085-.378.169-.547a3.77 3.77 0 01-.42.379l-.715.588.757.504z"/>
    <path d="M23.019 49.315l-.84-.378.126-.294 2.058.924-.126.294-.84-.378-1.134 2.478-.378-.168 1.134-2.478z"/>
    <path d="M24.49 52.297c.125.168.377.336.63.42.377.126.671 0 .755-.294.084-.294-.042-.462-.378-.756-.42-.336-.63-.672-.504-1.05.126-.462.63-.672 1.176-.504.294.084.504.21.588.336l-.21.294a1.31 1.31 0 00-.504-.294c-.42-.126-.63.084-.672.252-.084.294.042.462.42.756.42.336.63.672.462 1.092-.126.462-.588.756-1.302.546-.294-.084-.546-.252-.672-.42l.21-.378z"/>
    <path d="M29.404 53.977l.294-3.066.42.042.84 1.638c.21.378.336.714.462 1.05 0-.42.042-.798.084-1.26l.126-1.26.378.042-.294 3.066-.378-.042-.84-1.638c-.168-.378-.336-.714-.462-1.092 0 .378-.042.756-.084 1.26l-.126 1.302-.42-.042z"/>
    <path d="M33.856 53.263l-.294.966h-.42l.882-3.108.462-.042 1.177 3.024h-.42l-.379-.966-1.008.126zm1.008-.336l-.335-.882c-.085-.21-.127-.378-.169-.546-.042.168-.084.378-.126.546l-.252.882h.883z"/>
    <path d="M37.007 51.205l-.924.168-.042-.336 2.226-.378.042.336-.924.168.462 2.688-.378.084-.462-2.73z"/>
    <path d="M39.611 50.323l.546 1.722c.21.672.588.84.966.714.42-.126.63-.504.42-1.134l-.546-1.722.378-.126.546 1.722c.294.882-.084 1.428-.714 1.596-.588.168-1.176 0-1.428-.924l-.546-1.722.378-.126z"/>
    <path d="M42.636 49.315c.167-.126.42-.252.672-.378.378-.168.672-.21.924-.168.21.042.378.21.462.42.168.378.042.714-.21.966.252-.042.462.126.672.378.252.336.462.588.588.672l-.378.168c-.084-.042-.252-.252-.504-.588-.252-.336-.462-.42-.798-.294l-.336.168.546 1.218-.378.168-1.26-2.73zm.924 1.092l.378-.168c.378-.168.546-.504.378-.84-.168-.378-.504-.378-.882-.21a1.589 1.589 0 00-.336.21l.462 1.008z"/>
    <path d="M46.962 49.399l.252.966-.336.21-.798-3.15.42-.252 2.562 2.016-.336.21-.798-.63-.966.63zm.672-.84l-.714-.588c-.168-.127-.294-.252-.42-.378.042.167.126.378.168.546l.21.924.756-.504z"/>
    <path d="M48.18 45.954l.294-.252 1.765 2.1 1.008-.84.21.252-1.303 1.093-1.974-2.353z"/>
    <path d="M37.133 38.351c-.588-.63-.882-1.47-.882-2.436v-9.41h2.52l1.05-1.932h-3.57v-4.116l-3.235 2.184-4.788 3.235c1.554.125 2.352.882 2.352 2.226v8.569c0 1.596.462 2.856 1.428 3.738.966.925 2.352 1.387 4.159 1.387 1.47 0 2.73-.294 3.78-.883 1.05-.588 1.764-1.302 2.184-2.1a6.179 6.179 0 01-2.352.462c-1.176.042-2.058-.294-2.646-.924zm1.176 2.269c-.84.084-1.722.084-2.563-.169-.84-.21-1.638-.798-2.142-1.554s-.672-1.68-.672-2.562c0-1.68 0-3.36.084-5.04l.084-2.521.126-2.52.126 2.52.084 2.52c.042 1.68.042 3.36.084 5.04 0 .799.126 1.597.546 2.27.42.671 1.05 1.133 1.806 1.427.757.252 1.597.336 2.395.294.84 0 1.638-.168 2.394-.546-.672.462-1.512.714-2.352.84z"/>
    <path d="M50.028 38.351c-.042-.042-.042-.042-.042-.084-.546-.63-.84-1.428-.84-2.394v-9.41h2.52l.547-1.008.504-.924H49.146v-4.074l-7.98 5.418c1.553.127 2.352.883 2.352 2.227v8.569c0 1.596.462 2.856 1.428 3.738.546.547 1.26.883 2.142 1.093.588.168 1.26.252 2.016.252 1.47 0 2.73-.294 3.78-.883 1.05-.588 1.765-1.302 2.185-2.1a6.179 6.179 0 01-2.352.462c-1.218.084-2.1-.252-2.689-.882zm1.303 2.269c-.84.084-1.723.084-2.563-.169-.84-.21-1.638-.798-2.142-1.554s-.672-1.68-.672-2.562c0-1.68 0-3.36.084-5.04l.084-2.521.126-2.52.126 2.52.084 2.52c.042 1.68.042 3.36.084 5.04 0 .799.126 1.597.546 2.27.42.671 1.05 1.133 1.806 1.427.756.252 1.596.336 2.395.294.84 0 1.638-.168 2.394-.546-.63.462-1.47.714-2.352.84z"/>
    <path d="M59.06 21.717c.882 0 1.638-.252 2.142-.714.546-.504.798-1.176.798-2.058 0-.883-.252-1.555-.798-2.059-.546-.504-1.26-.714-2.142-.714-.883 0-1.639.252-2.185.756s-.798 1.176-.798 2.017c0 .882.252 1.554.798 2.058.546.462 1.26.714 2.185.714z"/>
    <path d="M56.371 27.388v13.945h5.545v-16.76h-7.771c1.47.252 2.226 1.218 2.226 2.815zm2.689-.84c.21 2.184.252 4.368.294 6.552 0 2.185-.042 4.369-.294 6.553-.21-2.184-.252-4.368-.294-6.553 0-2.184.041-4.368.294-6.552z"/>
    <path d="M11.93 16.172c-.127 0-.252 0-.378.042h-.294c-.127 0-.295.042-.42.042h-.253c-.168 0-.294.042-.462.084-.042 0-.126 0-.168.043-.168.041-.336.084-.504.084-.042 0-.084 0-.126.042-.168.041-.378.084-.546.125h-.084c-2.016.589-3.738 1.639-5.209 3.15C1.176 22.222 0 25.247 0 28.943c.042 3.697 1.176 6.721 3.486 9.157 1.47 1.513 3.193 2.563 5.21 3.15h.083c.168.043.378.085.546.127.042 0 .084 0 .126.042.168.042.336.084.504.084.042 0 .126 0 .168.042.168.042.294.042.462.084h.252c.126 0 .294.042.42.042h.295c.126 0 .252 0 .378.042H12.602c-2.647-.042-4.41-2.773-5.167-7.057-.168-.714-.252-1.386-.336-2.016-.126-1.009-.168-2.143-.168-3.445v-.168-.084-.084-.168-.168.168c0-1.26.042-2.436.168-3.444.084-.63.168-1.302.336-2.017.798-4.284 2.52-7.015 5.167-7.057H11.93zm-7.645 7.351c-.589 1.765-.757 3.613-.715 5.461 0 1.848.337 3.697.925 5.46.294.883.63 1.723 1.092 2.563.42.84.924 1.638 1.596 2.269-.756-.547-1.302-1.345-1.806-2.143-.504-.798-.882-1.68-1.26-2.562a16.724 16.724 0 01-1.093-5.587c0-1.89.168-3.822.883-5.629.336-.882.84-1.722 1.386-2.478a18.162 18.162 0 011.89-2.1c-1.26 1.47-2.31 3.024-2.898 4.746z"/>
    <path d="M17.6 16.676h-.084c-.168-.042-.378-.084-.546-.126-.042 0-.084 0-.126-.042-.168-.042-.336-.084-.504-.084-.042 0-.126 0-.168-.042-.168-.042-.294-.042-.462-.084h-.252c-.126 0-.294-.042-.42-.042h-.294c-.126 0-.252 0-.378-.042H13.694c2.646.042 4.41 2.773 5.166 7.057.169.714.253 1.386.337 2.016.126 1.009.168 2.143.168 3.445v-.168.672c0 1.26-.042 2.436-.168 3.444-.084.63-.168 1.303-.337 2.017-.798 4.284-2.52 7.015-5.166 7.057H14.366c.126 0 .252 0 .378-.042h.294c.126 0 .294-.042.42-.042h.252c.168 0 .294-.043.462-.084.042 0 .126 0 .168-.042.168-.042.336-.084.504-.084.042 0 .084 0 .126-.043.168-.041.378-.084.546-.126h.084c2.017-.588 3.739-1.638 5.209-3.15 2.31-2.436 3.486-5.46 3.486-9.157-.042-3.697-1.176-6.721-3.486-9.157-1.47-1.513-3.192-2.563-5.209-3.15zm4.663 17.895a14.505 14.505 0 01-1.26 2.562c-.504.798-1.05 1.596-1.806 2.142.672-.672 1.176-1.47 1.596-2.268.42-.84.798-1.68 1.092-2.562.588-1.765.924-3.613.924-5.461 0-1.848-.126-3.739-.714-5.46-.588-1.765-1.68-3.32-2.857-4.748.673.63 1.303 1.345 1.89 2.1a12.947 12.947 0 011.387 2.48c.714 1.805.882 3.738.882 5.628-.084 1.932-.42 3.822-1.134 5.587z"/>
</symbol><symbol id="ico-mono-main-logo" viewBox="0 0 398 349">
    <path d="M224.887 91.41c-11.326-1.078-22.651.27-33.437 4.046-10.516 3.775-20.493 9.707-28.313 17.527 8.899-6.741 18.606-12.134 29.122-15.1 10.516-2.967 21.572-4.315 32.358-2.967 21.841 1.888 42.065 13.213 56.626 29.931-6.202-9.168-14.561-16.988-24.268-22.65-9.977-6.202-21.033-9.707-32.088-10.786z"/>
    <path d="M224.077 107.59c14.292 1.348 27.774 7.55 38.83 16.988-5.124-5.124-11.056-9.438-17.527-12.674-6.472-3.236-13.752-5.123-21.033-5.932-7.28-.809-14.83-.27-21.841 1.348-7.011 1.618-14.022 4.584-19.954 8.629 12.673-7.011 27.234-9.977 41.525-8.359z"/>
    <path d="M198.46 121.612c8.36-2.427 17.258-2.967 25.887-1.888 8.628 1.079 16.718 4.314 24.268 8.898-3.506-2.696-7.281-5.123-11.325-6.741-4.045-1.887-8.359-2.966-12.943-3.505-8.629-1.348-17.797-.54-25.887 3.236z"/>
    <path d="M200.887 43.413c4.315 2.967 8.899 5.933 13.483 8.63-2.158 1.078-4.045 1.887-6.202 3.235-2.697 1.348-5.123 3.505-7.55 5.393l-.809.54.539.538a20.352 20.352 0 013.775 2.967c1.079 1.078 2.157 2.157 3.236 3.505l.269.27.27-.27c1.888-2.696 3.506-5.123 5.123-7.82-2.426 6.472-4.853 12.943-7.01 19.415-6.472.809-12.674 2.157-18.876 4.314-11.864 4.045-22.65 10.786-31.818 19.145 19.415-15.37 44.222-23.459 68.49-21.032 12.134.809 23.999 4.314 35.055 9.707 11.055 5.393 20.762 12.943 29.121 22.111-7.55-9.707-17.257-18.066-28.313-23.998-10.246-5.393-21.302-8.899-32.897-10.247-1.887-5.663-4.044-11.595-6.471-17.258 1.348 2.158 2.696 4.045 4.314 5.933l.54.809.539-.54a20.345 20.345 0 012.966-3.775c1.079-1.078 2.157-2.157 3.505-3.236l.27-.27-.27-.269c-4.314-2.966-8.898-5.932-13.212-8.629 2.157-1.078 4.044-1.887 6.202-3.235 2.696-1.349 5.123-3.506 7.55-5.393l.809-.54-.54-.539a20.38 20.38 0 01-3.775-2.966c-1.078-1.079-2.157-2.157-3.235-3.505l-.27-.27-.27.27c-2.966 4.314-5.932 8.898-8.628 13.482-1.079-2.157-1.888-4.045-3.236-6.202-1.348-2.696-3.506-5.123-5.393-7.55l-.54-.81-.539.54a20.345 20.345 0 01-2.966 3.775c-1.078 1.079-2.157 2.157-3.505 3.236l-.27.27.539.27zm6.741 24c-1.078-1.08-2.157-1.888-3.235-2.967-.809-.809-1.618-1.887-2.427-2.966 2.696-1.079 5.123-1.888 7.55-3.506 1.348-.808 2.427-1.617 3.775-2.426-1.887 4.044-3.775 7.82-5.663 11.864zm16.988 11.594H208.437c1.888-6.741 3.776-13.213 5.124-19.954.809-1.348 1.887-2.696 2.696-4.314.809 1.887 1.618 3.775 2.697 5.393 2.157 6.202 3.775 12.673 5.662 18.875zm7.55-17.797c-1.078 1.079-1.887 2.157-2.966 3.236-.809.809-1.887 1.618-2.966 2.427-1.078-2.697-1.887-5.124-3.505-7.55-.809-1.349-1.618-2.427-2.427-3.775 4.045 1.887 7.82 3.775 11.864 5.662zm-6.201-24.538c1.078 1.079 2.157 1.888 3.235 2.966.809.81 1.618 1.888 2.427 2.967-2.696 1.078-5.123 1.887-7.55 3.505-1.348.809-2.427 1.618-3.775 2.427 1.887-4.045 3.775-7.82 5.663-11.865zm-21.572 3.236c.809-.809 1.887-1.618 2.966-2.427 1.078 2.697 1.887 5.123 3.505 7.55.809 1.349 1.618 2.427 2.427 3.775-3.775-1.887-7.82-4.044-11.864-5.932a15.44 15.44 0 012.966-2.966z"/>
    <path d="M106.241 61.48c-.269 1.078-1.348 2.696-2.966 4.314-3.775 4.045-9.168 4.584-14.022.27-4.584-4.314-4.584-10.247-.539-14.561 1.618-1.888 3.236-2.427 3.775-2.697l1.079 1.888c-1.079.27-2.158 1.078-3.236 2.427-3.236 3.235-3.236 7.55.54 11.055 3.505 3.236 7.55 3.506 11.055 0 1.078-1.078 1.887-2.427 2.157-3.505l2.157.809z"/>
    <path d="M101.658 40.178l5.123 6.471 7.55-5.932-5.123-6.472 1.887-1.618 12.134 15.37-1.887 1.618-5.663-7.28-7.55 5.932 5.663 7.28-1.888 1.619-12.134-15.37 1.888-1.618z"/>
    <path d="M140.487 26.156c3.236 5.932 1.618 11.056-2.966 13.482-4.584 2.427-9.708.81-12.674-4.314-2.966-5.393-1.618-10.786 2.966-13.482 4.585-2.427 9.708-.81 12.674 4.314zm-13.213 7.82c2.157 3.775 5.932 5.932 9.438 3.775 3.505-1.888 3.775-6.202 1.348-10.247-1.887-3.505-5.663-5.932-9.438-3.775-3.505 2.157-3.505 6.472-1.348 10.247z"/>
    <path d="M164.485 16.448c2.427 6.472-.27 11.056-4.854 12.944-4.853 1.887-9.707-.81-11.864-6.202-2.157-5.933 0-11.056 4.853-12.943 5.393-1.888 9.977.809 11.865 6.201zm-14.022 5.663c1.349 4.045 4.854 6.741 8.629 5.393 3.775-1.348 4.584-5.663 2.966-9.977-1.348-3.775-4.584-6.741-8.629-5.393-3.775 1.618-4.584 5.932-2.966 9.977z"/>
    <path d="M174.192 21.302c1.349.54 2.967.54 4.854.27 2.427-.54 3.775-2.157 3.236-4.045-.27-1.887-1.618-2.696-4.584-2.966-3.506-.54-5.663-1.618-6.202-4.314-.539-2.966 1.348-5.663 5.123-6.472 1.888-.54 3.506-.27 4.584 0l-.269 2.157a5.88 5.88 0 00-3.775 0c-2.697.54-3.236 2.427-2.967 3.775.27 1.888 1.888 2.427 4.584 2.966 3.506.54 5.393 1.618 6.202 4.585.54 2.966-1.078 5.932-5.393 7.01-1.887.54-4.044.27-5.123-.27l-.27-2.696z"/>
    <path d="M202.505 10.516l-7.55.81.809 7.01 8.359-.809.27 2.157-11.056 1.079-1.887-19.684L201.966 0l.27 2.157-8.09.81.54 6.201 7.55-.809.269 2.157z"/>
    <path d="M227.313.27l-.809 8.09 9.438 1.078.809-8.09 2.426.27-2.157 19.684-2.427-.27 1.079-9.168-9.438-1.078-1.078 9.168-2.427-.27L224.886 0l2.427.27z"/>
    <path d="M257.783 16.448l-7.55-1.887-1.618 7.01 8.359 2.158-.54 2.157-10.786-2.696 4.854-19.145 10.247 2.696-.539 2.157-7.82-1.887-1.618 5.932 7.55 1.888-.539 1.617z"/>
    <path d="M269.378 23.46l-4.314 4.853-2.427-1.078 13.482-15.91 2.966 1.079-1.078 20.763-2.427-1.079.269-6.471-6.471-2.158zm6.741.539l.27-5.932c0-1.349.269-2.427.269-3.776-.809 1.079-1.348 1.888-2.157 2.966l-3.775 4.585 5.393 2.157z"/>
    <path d="M293.916 19.684l2.157 1.349-8.629 15.37 7.281 4.044-1.079 1.888-9.438-5.393 9.708-17.258z"/>
    <path d="M311.443 32.897l-4.854-3.505 1.348-1.888 11.865 8.36-1.348 1.887-4.854-3.506-10.247 14.292-2.157-1.618 10.247-14.022z"/>
    <path d="M328.701 43.683l-5.663 5.932 7.011 6.472 5.662-5.932 1.888 1.887-13.483 14.291-1.887-1.887 6.202-6.741-7.011-6.472-6.202 6.741-1.887-1.617 13.482-14.292 1.888 1.618z"/>
    <path d="M332.476 76.31l6.472-5.123 4.853-11.864 1.888 2.157-2.427 5.663c-.809 1.617-1.348 2.696-1.888 4.044 1.349-.27 2.697-.54 4.315-1.078l5.932-1.079 1.888 2.157-12.944 1.888-6.471 5.123-1.618-1.887z"/>
    <path d="M116.218 306.86c-4.314 5.123-9.707 5.393-13.752 2.157-4.044-3.235-4.314-8.628-.539-13.212 4.045-4.854 9.438-5.663 13.482-2.158 4.584 3.506 4.584 8.899.809 13.213zm-11.864-9.168c-2.697 3.236-3.236 7.55-.27 10.247 3.236 2.427 7.281 1.078 9.977-2.427 2.427-2.966 3.506-7.55.27-10.247-3.236-2.696-7.281-1.078-9.977 2.427z"/>
    <path d="M123.499 316.298l-4.854 4.314-2.157-1.348 15.909-13.482 2.697 1.617-4.314 20.224-2.427-1.348 1.348-6.472-6.202-3.505zm6.741 1.618l1.349-5.933c.269-1.348.539-2.426 1.078-3.505-.809.809-1.618 1.618-2.696 2.427l-4.584 3.775 4.853 3.236z"/>
    <path d="M147.767 316.567l-5.393-2.426.809-1.888 13.213 5.932-.809 1.888-5.393-2.427-7.281 15.909-2.427-1.078 7.281-15.91z"/>
    <path d="M157.205 335.713c.809 1.078 2.427 2.157 4.044 2.696 2.427.809 4.315 0 4.854-1.888.539-1.887-.27-2.966-2.427-4.853-2.696-2.157-4.045-4.315-3.236-6.741.809-2.967 4.045-4.315 7.551-3.236 1.887.539 3.235 1.348 3.775 2.157l-1.349 1.888c-.539-.54-1.618-1.349-3.235-1.888-2.697-.809-4.045.539-4.315 1.618-.539 1.887.27 2.966 2.697 4.854 2.696 2.157 4.044 4.314 2.966 7.01-.809 2.967-3.775 4.854-8.359 3.506-1.888-.539-3.506-1.618-4.315-2.697l1.349-2.426z"/>
    <path d="M188.754 346.498l1.887-19.684 2.697.27 5.393 10.516c1.348 2.427 2.157 4.584 2.966 6.741 0-2.696.27-5.123.539-8.089l.809-8.09 2.427.27-1.888 19.684-2.426-.269-5.393-10.517c-1.079-2.426-2.157-4.584-2.966-7.01 0 2.426-.27 4.853-.54 8.089l-.809 8.359-2.696-.27z"/>
    <path d="M217.336 341.914l-1.888 6.202h-2.696l5.663-19.954 2.966-.269 7.55 19.414h-2.697l-2.427-6.201-6.471.808zm6.471-2.157l-2.157-5.662c-.539-1.349-.809-2.427-1.078-3.506-.27 1.079-.54 2.427-.809 3.506l-1.618 5.662h5.662z"/>
    <path d="M237.56 328.702l-5.932 1.078-.27-2.157 14.291-2.427.27 2.157-5.932 1.079 2.966 17.257-2.427.54-2.966-17.527z"/>
    <path d="M254.278 323.039l3.505 11.056c1.349 4.314 3.775 5.393 6.202 4.584 2.697-.809 4.045-3.236 2.697-7.281l-3.506-11.055 2.427-.809 3.506 11.055c1.887 5.663-.54 9.168-4.585 10.247-3.775 1.078-7.55 0-9.168-5.932l-3.505-11.056 2.427-.809z"/>
    <path d="M273.692 316.567c1.079-.809 2.697-1.617 4.315-2.426 2.427-1.079 4.314-1.349 5.932-1.079 1.348.27 2.427 1.348 2.966 2.697 1.079 2.426.27 4.584-1.348 6.201 1.618-.269 2.966.809 4.314 2.427 1.618 2.157 2.966 3.775 3.775 4.315l-2.427 1.078c-.539-.269-1.617-1.618-3.235-3.775-1.618-2.157-2.966-2.696-5.124-1.887l-2.157 1.078 3.506 7.82-2.427 1.079-8.09-17.528zm5.933 7.011l2.426-1.078c2.427-1.079 3.506-3.236 2.427-5.393-1.078-2.427-3.235-2.427-5.662-1.348-1.079.539-1.888 1.078-2.157 1.348l2.966 6.471z"/>
    <path d="M301.466 317.107l1.618 6.202-2.157 1.348-5.124-20.224 2.697-1.618 16.448 12.944-2.157 1.348-5.123-4.045-6.202 4.045zm4.314-5.393l-4.584-3.775c-1.078-.809-1.887-1.618-2.696-2.427.269 1.078.809 2.427 1.078 3.505l1.349 5.933 4.853-3.236z"/>
    <path d="M309.286 294.996l1.888-1.618 11.325 13.482 6.471-5.393 1.349 1.618-8.359 7.011-12.674-15.1z"/>
    <path d="M238.368 246.189c-3.775-4.044-5.663-9.437-5.663-15.639v-60.402h16.179l6.741-12.404h-22.92v-26.425l-20.763 14.022-30.739 20.763c9.977.809 15.1 5.662 15.1 14.291v55.008c0 10.247 2.966 18.336 9.168 23.999 6.202 5.932 15.1 8.898 26.695 8.898 9.438 0 17.527-1.887 24.268-5.662s11.326-8.359 14.022-13.483a39.66 39.66 0 01-15.1 2.967c-7.55.269-13.213-1.888-16.988-5.933zm7.55 14.561c-5.393.54-11.056.54-16.448-1.078-5.393-1.349-10.517-5.124-13.753-9.977-3.235-4.854-4.314-10.786-4.314-16.449 0-10.786 0-21.572.539-32.358l.54-16.179.809-16.179.809 16.179.539 16.179c.27 10.786.27 21.572.539 32.358 0 5.123.809 10.247 3.506 14.561 2.696 4.314 6.741 7.281 11.595 9.168 4.853 1.618 10.246 2.157 15.369 1.888 5.393 0 10.517-1.079 15.37-3.506-4.314 2.966-9.707 4.584-15.1 5.393z"/>
    <path d="M321.15 246.189c-.27-.269-.27-.269-.27-.539-3.505-4.045-5.393-9.168-5.393-15.37v-60.401h16.179l3.506-6.472 3.235-5.932h-22.92v-26.156l-51.233 34.785c9.977.809 15.101 5.662 15.101 14.291v55.008c0 10.247 2.966 18.336 9.168 23.999 3.505 3.505 8.089 5.663 13.752 7.011 3.775 1.079 8.089 1.618 12.943 1.618 9.438 0 17.527-1.888 24.268-5.663 6.741-3.775 11.325-8.359 14.022-13.482a39.684 39.684 0 01-15.101 2.966c-7.819.539-13.482-1.618-17.257-5.663zm8.359 14.561c-5.393.54-11.055.54-16.448-1.078-5.393-1.349-10.517-5.124-13.752-9.977-3.236-4.854-4.315-10.786-4.315-16.449 0-10.786 0-21.572.54-32.358l.539-16.179.809-16.179.809 16.179.539 16.179c.27 10.786.27 21.572.539 32.358 0 5.123.809 10.247 3.506 14.561 2.696 4.315 6.741 7.281 11.595 9.168 4.853 1.618 10.246 2.157 15.369 1.888 5.393 0 10.517-1.079 15.37-3.506-4.044 2.966-9.437 4.584-15.1 5.393z"/>
    <path d="M379.125 139.408c5.662 0 10.516-1.618 13.752-4.584 3.505-3.235 5.123-7.55 5.123-13.212 0-5.663-1.618-9.977-5.123-13.213-3.506-3.236-8.09-4.584-13.752-4.584-5.663 0-10.517 1.618-14.022 4.853-3.506 3.236-5.124 7.551-5.124 12.944 0 5.662 1.618 9.977 5.124 13.212 3.505 2.966 8.089 4.584 14.022 4.584z"/>
    <path d="M361.867 175.811v89.523h35.593v-107.59h-49.884c9.437 1.618 14.291 7.82 14.291 18.067zm17.257-5.393c1.349 14.022 1.618 28.043 1.888 42.065 0 14.022-.27 28.044-1.888 42.065-1.348-14.021-1.617-28.043-1.887-42.065 0-14.022.27-28.043 1.887-42.065z"/>
    <path d="M76.58 103.815c-.809 0-1.618 0-2.427.269h-1.887c-.81 0-1.888.27-2.697.27h-1.618c-1.078 0-1.887.27-2.966.539-.27 0-.809 0-1.078.27-1.08.27-2.158.539-3.236.539-.27 0-.54 0-.81.27-1.078.27-2.426.539-3.505.809h-.539c-12.943 3.775-23.999 10.516-33.436 20.224C7.55 142.644 0 162.059 0 185.788c.27 23.729 7.55 43.144 22.38 58.783 9.438 9.708 20.494 16.449 33.437 20.224h.54c1.078.27 2.426.539 3.505.809.27 0 .54 0 .809.27 1.078.269 2.157.539 3.236.539.27 0 .808 0 1.078.27 1.079.269 1.888.269 2.966.539h1.618c.81 0 1.888.269 2.697.269h1.887c.81 0 1.618 0 2.427.27h4.314c-16.988-.27-28.313-17.797-33.166-45.301-1.079-4.584-1.618-8.898-2.158-12.943-.809-6.472-1.078-13.752-1.078-22.111v-1.079-.539-.539-1.079-1.079 1.079c0-8.089.27-15.64 1.078-22.111.54-4.045 1.079-8.359 2.158-12.943 5.123-27.504 16.178-45.032 33.166-45.301H76.58zm-49.076 47.188c-3.775 11.325-4.854 23.19-4.584 35.055 0 11.864 2.157 23.729 5.932 35.054 1.888 5.663 4.045 11.056 7.011 16.448 2.697 5.393 5.932 10.517 10.247 14.561-4.854-3.505-8.36-8.628-11.595-13.752-3.236-5.123-5.663-10.786-8.09-16.448a107.356 107.356 0 01-7.01-35.863c0-12.135 1.078-24.538 5.662-36.133 2.157-5.663 5.393-11.056 8.899-15.91 3.775-4.853 7.82-9.437 12.134-13.482-8.09 9.438-14.83 19.415-18.606 30.47z"/>
    <path d="M112.983 107.05h-.54c-1.078-.269-2.427-.539-3.505-.808-.27 0-.54 0-.809-.27-1.079-.27-2.157-.539-3.236-.539-.27 0-.809 0-1.079-.27-1.078-.27-1.887-.27-2.966-.539h-1.617c-.81 0-1.888-.27-2.697-.27h-1.888c-.808 0-1.617 0-2.426-.27H87.905c16.988.27 28.313 17.797 33.167 45.301 1.079 4.584 1.618 8.899 2.157 12.943.809 6.472 1.079 13.753 1.079 22.112v-1.079 4.314c0 8.09-.27 15.64-1.079 22.112-.539 4.044-1.078 8.359-2.157 12.943-5.123 27.504-16.179 45.031-33.167 45.301H92.22c.809 0 1.618 0 2.427-.27h1.887c.809 0 1.888-.27 2.697-.27h1.617c1.079 0 1.888-.269 2.966-.539.27 0 .809 0 1.079-.27 1.079-.269 2.157-.539 3.236-.539.269 0 .539 0 .809-.269 1.078-.27 2.427-.54 3.505-.809h.54c12.943-3.775 23.998-10.517 33.436-20.224 14.83-15.64 22.38-35.054 22.38-58.783-.269-23.73-7.55-43.144-22.38-58.784-9.438-9.707-20.493-16.448-33.436-20.224zm29.93 114.871c-2.157 5.662-4.853 11.325-8.089 16.448-3.236 5.124-6.741 10.247-11.595 13.752 4.314-4.314 7.55-9.437 10.247-14.561 2.696-5.393 5.123-10.786 7.011-16.448 3.775-11.325 5.932-23.19 5.932-35.054 0-11.865-.809-23.999-4.584-35.055-3.775-11.325-10.786-21.302-18.336-30.47 4.314 4.045 8.359 8.629 12.134 13.482 3.505 4.854 6.471 10.247 8.898 15.91 4.584 11.595 5.663 23.998 5.663 36.133-.539 12.403-2.697 24.538-7.281 35.863z"/>
</symbol></svg>