<svg width="57" height="68" viewBox="0 0 57 68" fill="none" xmlns="http://www.w3.org/2000/svg">
<path d="M39.0334 41.2097L51.9354 52.1734L50.1558 52.5409L48.8616 52.7859C47.5875 53.0513 46.8595 54.4805 47.4258 55.6442L47.9718 56.8284L50.722 62.8309L47.8504 64.1784L45.1002 58.1963L44.5744 57.0122C44.0284 55.8076 42.5117 55.4401 41.5005 56.2772L40.4692 57.0938L39.0334 58.2576V41.2097ZM37.5369 36.4934C37.1293 36.4934 36.7384 36.6569 36.4502 36.9479C36.1619 37.2389 36 37.6335 36 38.0451V61.4222C36 62.2797 36.6876 62.9738 37.5369 62.9738C37.9211 62.9738 38.2447 62.8513 38.5076 62.6472L42.3701 59.4826L45.7271 66.8734C45.99 67.4247 46.536 67.7513 47.1224 67.7513C47.3449 67.7513 47.5673 67.7513 47.7898 67.588L53.3712 64.9747C54.1397 64.6072 54.5037 63.668 54.0992 62.9126L50.722 55.5013L55.5957 54.5826C55.9193 54.4805 56.2226 54.3376 56.4653 54.0517C57.0113 53.3984 56.9304 52.4388 56.2226 51.8467L38.548 36.8405L38.5278 36.8609C38.2649 36.6363 37.9211 36.4934 37.5369 36.4934Z" fill="#239D4A"/>
<mask id="path-2-inside-1_909_2" fill="white">
<path fill-rule="evenodd" clip-rule="evenodd" d="M0.603911 1.13133C0.990588 0.746879 1.51503 0.530897 2.06188 0.530897H41.4667C41.764 0.472461 42.0707 0.48245 42.3635 0.560099C42.6563 0.637748 42.9273 0.780996 43.1558 0.97887C43.3843 1.17674 43.5643 1.42399 43.6818 1.70168C43.7994 1.97937 43.8514 2.28012 43.834 2.5809V36.4554C42.4227 35.4254 40.8762 34.3127 39.4048 33.2621V4.55498H4.04739V60.8162H33.4358C33.4437 61.6869 33.4553 62.5892 33.4665 63.4574C33.4726 63.9322 33.4786 64.3967 33.4838 64.8402H2.06188C1.51503 64.8402 0.990588 64.6243 0.603911 64.2398C0.217233 63.8554 0 63.3339 0 62.7902V2.5809C0 2.03721 0.217233 1.51578 0.603911 1.13133ZM12.5334 13.3895C12.7706 13.2811 13.0269 13.2203 13.2877 13.2105H29.7063C29.9734 13.2003 30.2399 13.2438 30.4896 13.3384C30.7394 13.4331 30.9674 13.5769 31.1599 13.7612C31.3525 13.9455 31.5056 14.1666 31.6101 14.4112C31.7146 14.6558 31.7684 14.9189 31.7682 15.1846C31.7682 15.7283 31.551 16.2497 31.1643 16.6342C30.7776 17.0186 30.2532 17.2346 29.7063 17.2346H13.5168C12.9752 17.236 12.4532 17.033 12.0563 16.6666C11.6594 16.3002 11.4172 15.7977 11.3785 15.2605C11.3683 15.0013 11.4096 14.7425 11.5 14.4991C11.5905 14.2557 11.7283 14.0324 11.9056 13.842C12.0829 13.6516 12.2963 13.4978 12.5334 13.3895ZM12.3863 30.6984C12.6812 30.6241 12.989 30.6156 13.2877 30.6735H13.8222H29.7063C30.005 30.6156 30.3128 30.6241 30.6077 30.6984C30.9026 30.7726 31.1774 30.9109 31.4122 31.1032C31.6471 31.2956 31.8362 31.5372 31.966 31.8108C32.0959 32.0843 32.1632 32.3831 32.1632 32.6856C32.1632 32.9881 32.0959 33.2868 31.966 33.5604C31.8362 33.834 31.6471 34.0756 31.4122 34.2679C31.1774 34.4602 30.9026 34.5985 30.6077 34.6728C30.3128 34.7471 30.005 34.7556 29.7063 34.6976H13.2877C12.989 34.7556 12.6812 34.7471 12.3863 34.6728C12.0914 34.5985 11.8166 34.4602 11.5818 34.2679C11.3469 34.0756 11.1578 33.834 11.028 33.5604C10.8982 33.2868 10.8308 32.9881 10.8308 32.6856C10.8308 32.3831 10.8982 32.0843 11.028 31.8108C11.1578 31.5372 11.3469 31.2956 11.5818 31.1032C11.8166 30.9109 12.0914 30.7726 12.3863 30.6984ZM12.3863 48.1613C12.6812 48.0871 12.989 48.0786 13.2877 48.1365H29.7063C30.005 48.0786 30.3128 48.0871 30.6077 48.1613C30.9026 48.2356 31.1774 48.3739 31.4122 48.5662C31.6471 48.7586 31.8362 49.0002 31.966 49.2737C32.0959 49.5473 32.1632 49.8461 32.1632 50.1486C32.1632 50.4511 32.0959 50.7498 31.966 51.0234C31.8362 51.297 31.6471 51.5386 31.4122 51.7309C31.1774 51.9232 30.9026 52.0615 30.6077 52.1358C30.3128 52.2101 30.005 52.2185 29.7063 52.1606H13.2877C12.989 52.2185 12.6812 52.2101 12.3863 52.1358C12.0914 52.0615 11.8166 51.9232 11.5818 51.7309C11.3469 51.5386 11.1578 51.297 11.028 51.0234C10.8982 50.7498 10.8308 50.4511 10.8308 50.1486C10.8308 49.8461 10.8982 49.5473 11.028 49.2737C11.1578 49.0002 11.3469 48.7586 11.5818 48.5662C11.8166 48.3739 12.0914 48.2356 12.3863 48.1613Z"/>
</mask>
<path fill-rule="evenodd" clip-rule="evenodd" d="M0.603911 1.13133C0.990588 0.746879 1.51503 0.530897 2.06188 0.530897H41.4667C41.764 0.472461 42.0707 0.48245 42.3635 0.560099C42.6563 0.637748 42.9273 0.780996 43.1558 0.97887C43.3843 1.17674 43.5643 1.42399 43.6818 1.70168C43.7994 1.97937 43.8514 2.28012 43.834 2.5809V36.4554C42.4227 35.4254 40.8762 34.3127 39.4048 33.2621V4.55498H4.04739V60.8162H33.4358C33.4437 61.6869 33.4553 62.5892 33.4665 63.4574C33.4726 63.9322 33.4786 64.3967 33.4838 64.8402H2.06188C1.51503 64.8402 0.990588 64.6243 0.603911 64.2398C0.217233 63.8554 0 63.3339 0 62.7902V2.5809C0 2.03721 0.217233 1.51578 0.603911 1.13133ZM12.5334 13.3895C12.7706 13.2811 13.0269 13.2203 13.2877 13.2105H29.7063C29.9734 13.2003 30.2399 13.2438 30.4896 13.3384C30.7394 13.4331 30.9674 13.5769 31.1599 13.7612C31.3525 13.9455 31.5056 14.1666 31.6101 14.4112C31.7146 14.6558 31.7684 14.9189 31.7682 15.1846C31.7682 15.7283 31.551 16.2497 31.1643 16.6342C30.7776 17.0186 30.2532 17.2346 29.7063 17.2346H13.5168C12.9752 17.236 12.4532 17.033 12.0563 16.6666C11.6594 16.3002 11.4172 15.7977 11.3785 15.2605C11.3683 15.0013 11.4096 14.7425 11.5 14.4991C11.5905 14.2557 11.7283 14.0324 11.9056 13.842C12.0829 13.6516 12.2963 13.4978 12.5334 13.3895ZM12.3863 30.6984C12.6812 30.6241 12.989 30.6156 13.2877 30.6735H13.8222H29.7063C30.005 30.6156 30.3128 30.6241 30.6077 30.6984C30.9026 30.7726 31.1774 30.9109 31.4122 31.1032C31.6471 31.2956 31.8362 31.5372 31.966 31.8108C32.0959 32.0843 32.1632 32.3831 32.1632 32.6856C32.1632 32.9881 32.0959 33.2868 31.966 33.5604C31.8362 33.834 31.6471 34.0756 31.4122 34.2679C31.1774 34.4602 30.9026 34.5985 30.6077 34.6728C30.3128 34.7471 30.005 34.7556 29.7063 34.6976H13.2877C12.989 34.7556 12.6812 34.7471 12.3863 34.6728C12.0914 34.5985 11.8166 34.4602 11.5818 34.2679C11.3469 34.0756 11.1578 33.834 11.028 33.5604C10.8982 33.2868 10.8308 32.9881 10.8308 32.6856C10.8308 32.3831 10.8982 32.0843 11.028 31.8108C11.1578 31.5372 11.3469 31.2956 11.5818 31.1032C11.8166 30.9109 12.0914 30.7726 12.3863 30.6984ZM12.3863 48.1613C12.6812 48.0871 12.989 48.0786 13.2877 48.1365H29.7063C30.005 48.0786 30.3128 48.0871 30.6077 48.1613C30.9026 48.2356 31.1774 48.3739 31.4122 48.5662C31.6471 48.7586 31.8362 49.0002 31.966 49.2737C32.0959 49.5473 32.1632 49.8461 32.1632 50.1486C32.1632 50.4511 32.0959 50.7498 31.966 51.0234C31.8362 51.297 31.6471 51.5386 31.4122 51.7309C31.1774 51.9232 30.9026 52.0615 30.6077 52.1358C30.3128 52.2101 30.005 52.2185 29.7063 52.1606H13.2877C12.989 52.2185 12.6812 52.2101 12.3863 52.1358C12.0914 52.0615 11.8166 51.9232 11.5818 51.7309C11.3469 51.5386 11.1578 51.297 11.028 51.0234C10.8982 50.7498 10.8308 50.4511 10.8308 50.1486C10.8308 49.8461 10.8982 49.5473 11.028 49.2737C11.1578 49.0002 11.3469 48.7586 11.5818 48.5662C11.8166 48.3739 12.0914 48.2356 12.3863 48.1613Z" fill="#239D4A"/>
<path d="M41.4667 0.530897V1.5309H41.564L41.6596 1.51212L41.4667 0.530897ZM42.3635 0.560099L42.6199 -0.406487L42.3635 0.560099ZM43.1558 0.97887L43.8105 0.222915V0.222915L43.1558 0.97887ZM43.6818 1.70168L42.7609 2.09152V2.09152L43.6818 1.70168ZM43.834 2.5809L42.8357 2.52311L42.834 2.55198V2.5809H43.834ZM43.834 36.4554L43.2445 37.2632L44.834 38.4232V36.4554H43.834ZM39.4048 33.2621H38.4048V33.7768L38.8237 34.0759L39.4048 33.2621ZM39.4048 4.55498H40.4048V3.55498H39.4048V4.55498ZM4.04739 4.55498V3.55498H3.04739V4.55498H4.04739ZM4.04739 60.8162H3.04739V61.8162H4.04739V60.8162ZM33.4358 60.8162L34.4358 60.8071L34.4267 59.8162H33.4358V60.8162ZM33.4665 63.4574L34.4664 63.4445L33.4665 63.4574ZM33.4838 64.8402V65.8402H34.4955L34.4837 64.8286L33.4838 64.8402ZM13.2877 13.2105V12.2105H13.2689L13.2502 12.2112L13.2877 13.2105ZM29.7063 13.2105V14.2105H29.7255L29.7446 14.2098L29.7063 13.2105ZM30.4896 13.3384L30.8439 12.4033L30.8439 12.4033L30.4896 13.3384ZM31.1599 13.7612L31.8515 13.0389L31.8515 13.0389L31.1599 13.7612ZM31.6101 14.4112L32.5297 14.0183V14.0183L31.6101 14.4112ZM31.7682 15.1846L30.7682 15.1839V15.1846H31.7682ZM31.1643 16.6342L30.4592 15.925L30.4592 15.925L31.1643 16.6342ZM13.5168 17.2346V16.2346L13.5142 16.2346L13.5168 17.2346ZM11.3785 15.2605L10.3793 15.2999L10.3799 15.3162L10.3811 15.3324L11.3785 15.2605ZM13.2877 30.6735L13.0972 31.6552L13.1915 31.6735H13.2877V30.6735ZM29.7063 30.6735V31.6735H29.8025L29.8968 31.6552L29.7063 30.6735ZM31.966 31.8108L32.8694 31.382L32.8694 31.382L31.966 31.8108ZM31.4122 34.2679L30.7786 33.4942L30.7786 33.4942L31.4122 34.2679ZM29.7063 34.6976L29.8968 33.7159L29.8025 33.6976H29.7063V34.6976ZM13.2877 34.6976V33.6976H13.1915L13.0972 33.7159L13.2877 34.6976ZM11.5818 34.2679L12.2154 33.4942L12.2154 33.4942L11.5818 34.2679ZM11.028 31.8108L10.1246 31.382L10.1246 31.382L11.028 31.8108ZM13.2877 48.1365L13.0972 49.1182L13.1915 49.1365H13.2877V48.1365ZM29.7063 48.1365V49.1365H29.8025L29.8968 49.1182L29.7063 48.1365ZM31.4122 48.5662L32.0458 47.7926L32.0458 47.7926L31.4122 48.5662ZM31.4122 51.7309L30.7786 50.9572L30.7786 50.9572L31.4122 51.7309ZM29.7063 52.1606L29.8968 51.1789L29.8025 51.1606H29.7063V52.1606ZM13.2877 52.1606V51.1606H13.1915L13.0972 51.1789L13.2877 52.1606ZM11.5818 51.7309L12.2154 50.9572L12.2154 50.9572L11.5818 51.7309ZM11.5818 48.5662L10.9482 47.7926L10.9482 47.7926L11.5818 48.5662ZM2.06188 -0.469103C1.25168 -0.469103 0.473501 -0.149159 -0.101151 0.422183L1.30897 1.84048C1.50767 1.64292 1.77839 1.5309 2.06188 1.5309V-0.469103ZM41.4667 -0.469103H2.06188V1.5309H41.4667V-0.469103ZM42.6199 -0.406487C42.1804 -0.523046 41.72 -0.538028 41.2738 -0.450325L41.6596 1.51212C41.808 1.48295 41.9611 1.48795 42.1072 1.52668L42.6199 -0.406487ZM43.8105 0.222915C43.4667 -0.0747724 43.0594 -0.289925 42.6199 -0.406487L42.1072 1.52668C42.2532 1.56542 42.388 1.63676 42.5012 1.73483L43.8105 0.222915ZM44.6027 1.31184C44.4254 0.893013 44.1543 0.520618 43.8105 0.222915L42.5012 1.73483C42.6144 1.83287 42.7031 1.95498 42.7609 2.09152L44.6027 1.31184ZM44.8324 2.63869C44.8586 2.1846 44.78 1.7307 44.6027 1.31184L42.7609 2.09152C42.8187 2.22803 42.8442 2.37564 42.8357 2.52311L44.8324 2.63869ZM44.834 36.4554V2.5809H42.834V36.4554H44.834ZM38.8237 34.0759C40.2933 35.1252 41.8368 36.2358 43.2445 37.2632L44.4235 35.6476C43.0086 34.615 41.4591 33.5001 39.9859 32.4482L38.8237 34.0759ZM38.4048 4.55498V33.2621H40.4048V4.55498H38.4048ZM4.04739 5.55498H39.4048V3.55498H4.04739V5.55498ZM5.04739 60.8162V4.55498H3.04739V60.8162H5.04739ZM33.4358 59.8162H4.04739V61.8162H33.4358V59.8162ZM34.4664 63.4445C34.4553 62.576 34.4437 61.6756 34.4358 60.8071L32.4358 60.8253C32.4438 61.6982 32.4554 62.6024 32.4666 63.4703L34.4664 63.4445ZM34.4837 64.8286C34.4785 64.3843 34.4725 63.9192 34.4664 63.4445L32.4666 63.4703C32.4727 63.9451 32.4787 64.4091 32.4838 64.8519L34.4837 64.8286ZM2.06188 65.8402H33.4838V63.8402H2.06188V65.8402ZM-0.10115 64.949C0.473496 65.5203 1.25167 65.8402 2.06188 65.8402V63.8402C1.7784 63.8402 1.50768 63.7282 1.30897 63.5307L-0.10115 64.949ZM-1 62.7902C-1 63.601 -0.676 64.3774 -0.10115 64.949L1.30897 63.5307C1.11047 63.3333 1 63.0668 1 62.7902H-1ZM-1 2.5809V62.7902H1V2.5809H-1ZM-0.101151 0.422183C-0.675998 0.993719 -1 1.77012 -1 2.5809H1C1 2.30429 1.11046 2.03784 1.30897 1.84048L-0.101151 0.422183ZM13.2502 12.2112C12.8588 12.2259 12.474 12.3172 12.1178 12.4799L12.949 14.299C13.0671 14.2451 13.1949 14.2147 13.3251 14.2098L13.2502 12.2112ZM29.7063 12.2105H13.2877V14.2105H29.7063V12.2105ZM30.8439 12.4033C30.4688 12.2612 30.0689 12.1959 29.6681 12.2113L29.7446 14.2098C29.878 14.2047 30.0109 14.2264 30.1354 14.2736L30.8439 12.4033ZM31.8515 13.0389C31.5618 12.7615 31.219 12.5454 30.8439 12.4033L30.1354 14.2736C30.2598 14.3207 30.373 14.3922 30.4684 14.4835L31.8515 13.0389ZM32.5297 14.0183C32.372 13.6494 32.1413 13.3163 31.8515 13.0389L30.4684 14.4835C30.5637 14.5748 30.6392 14.6839 30.6906 14.8042L32.5297 14.0183ZM32.7682 15.1854C32.7685 14.7842 32.6873 14.3872 32.5297 14.0183L30.6906 14.8042C30.742 14.9244 30.7683 15.0536 30.7682 15.1839L32.7682 15.1854ZM31.8694 17.3433C32.4442 16.7718 32.7682 15.9954 32.7682 15.1846H30.7682C30.7682 15.4612 30.6577 15.7277 30.4592 15.925L31.8694 17.3433ZM29.7063 18.2346C30.5165 18.2346 31.2947 17.9147 31.8694 17.3433L30.4592 15.925C30.2605 16.1226 29.9898 16.2346 29.7063 16.2346V18.2346ZM13.5168 18.2346H29.7063V16.2346H13.5168V18.2346ZM11.378 17.4013C11.9608 17.9394 12.7262 18.2366 13.5193 18.2346L13.5142 16.2346C13.2242 16.2354 12.9456 16.1266 12.7347 15.9318L11.378 17.4013ZM10.3811 15.3324C10.4381 16.1239 10.795 16.8631 11.378 17.4013L12.7347 15.9318C12.5239 15.7372 12.3963 15.4715 12.3759 15.1887L10.3811 15.3324ZM10.5627 14.1508C10.4262 14.518 10.3639 14.9085 10.3793 15.2999L12.3777 15.2211C12.3727 15.094 12.393 14.967 12.4374 14.8474L10.5627 14.1508ZM11.1738 13.1605C10.9069 13.4471 10.6991 13.7836 10.5627 14.1508L12.4374 14.8474C12.4819 14.7278 12.5497 14.6177 12.6374 14.5235L11.1738 13.1605ZM12.1178 12.4799C11.7616 12.6427 11.4407 12.8739 11.1738 13.1605L12.6374 14.5235C12.7251 14.4294 12.8309 14.353 12.949 14.299L12.1178 12.4799ZM13.4782 29.6918C13.0355 29.6059 12.5793 29.6185 12.142 29.7286L12.6306 31.6681C12.7832 31.6296 12.9426 31.6252 13.0972 31.6552L13.4782 29.6918ZM13.8222 29.6735H13.2877V31.6735H13.8222V29.6735ZM29.7063 29.6735H13.8222V31.6735H29.7063V29.6735ZM30.852 29.7286C30.4147 29.6185 29.9585 29.6059 29.5158 29.6918L29.8968 31.6552C30.0514 31.6252 30.2108 31.6296 30.3634 31.6681L30.852 29.7286ZM32.0458 30.3296C31.697 30.0439 31.2892 29.8388 30.852 29.7286L30.3634 31.6681C30.516 31.7065 30.6578 31.778 30.7786 31.8769L32.0458 30.3296ZM32.8694 31.382C32.6761 30.9746 32.3947 30.6153 32.0458 30.3296L30.7786 31.8769C30.8994 31.9758 30.9963 32.0998 31.0626 32.2395L32.8694 31.382ZM33.1632 32.6856C33.1632 32.2346 33.0628 31.7894 32.8694 31.382L31.0626 32.2395C31.1289 32.3792 31.1632 32.5315 31.1632 32.6856H33.1632ZM32.8694 33.9892C33.0628 33.5817 33.1632 33.1365 33.1632 32.6856H31.1632C31.1632 32.8396 31.1289 32.9919 31.0626 33.1316L32.8694 33.9892ZM32.0458 35.0416C32.3947 34.7559 32.6761 34.3965 32.8694 33.9892L31.0626 33.1316C30.9963 33.2714 30.8994 33.3953 30.7786 33.4942L32.0458 35.0416ZM30.852 35.6425C31.2892 35.5323 31.6969 35.3273 32.0458 35.0416L30.7786 33.4942C30.6578 33.5932 30.5161 33.6646 30.3634 33.7031L30.852 35.6425ZM29.5158 35.6793C29.9585 35.7652 30.4147 35.7526 30.852 35.6425L30.3634 33.7031C30.2108 33.7415 30.0514 33.7459 29.8968 33.7159L29.5158 35.6793ZM13.2877 35.6976H29.7063V33.6976H13.2877V35.6976ZM12.142 35.6425C12.5793 35.7526 13.0355 35.7652 13.4782 35.6793L13.0972 33.7159C12.9426 33.7459 12.7832 33.7415 12.6306 33.7031L12.142 35.6425ZM10.9482 35.0416C11.2971 35.3273 11.7048 35.5323 12.142 35.6425L12.6306 33.7031C12.478 33.6646 12.3362 33.5932 12.2154 33.4942L10.9482 35.0416ZM10.1246 33.9892C10.3179 34.3965 10.5993 34.7559 10.9482 35.0416L12.2154 33.4942C12.0946 33.3953 11.9977 33.2714 11.9314 33.1316L10.1246 33.9892ZM9.83082 32.6856C9.83082 33.1365 9.93121 33.5817 10.1246 33.9892L11.9314 33.1316C11.8651 32.9919 11.8308 32.8396 11.8308 32.6856H9.83082ZM10.1246 31.382C9.93121 31.7894 9.83082 32.2346 9.83082 32.6856H11.8308C11.8308 32.5316 11.8651 32.3792 11.9314 32.2395L10.1246 31.382ZM10.9482 30.3296C10.5993 30.6153 10.3179 30.9746 10.1246 31.382L11.9314 32.2395C11.9977 32.0998 12.0946 31.9758 12.2154 31.8769L10.9482 30.3296ZM12.142 29.7286C11.7048 29.8388 11.297 30.0439 10.9482 30.3296L12.2154 31.8769C12.3362 31.778 12.478 31.7065 12.6306 31.6681L12.142 29.7286ZM13.4782 47.1548C13.0355 47.0689 12.5793 47.0815 12.142 47.1916L12.6306 49.1311C12.7832 49.0926 12.9426 49.0882 13.0972 49.1182L13.4782 47.1548ZM29.7063 47.1365H13.2877V49.1365H29.7063V47.1365ZM30.852 47.1916C30.4147 47.0815 29.9585 47.0689 29.5158 47.1548L29.8968 49.1182C30.0514 49.0882 30.2108 49.0926 30.3634 49.1311L30.852 47.1916ZM32.0458 47.7926C31.6969 47.5069 31.2892 47.3018 30.852 47.1916L30.3634 49.1311C30.516 49.1695 30.6578 49.2409 30.7786 49.3399L32.0458 47.7926ZM32.8694 48.845C32.6761 48.4376 32.3947 48.0783 32.0458 47.7926L30.7786 49.3399C30.8994 49.4388 30.9963 49.5628 31.0626 49.7025L32.8694 48.845ZM33.1632 50.1486C33.1632 49.6976 33.0628 49.2524 32.8694 48.845L31.0626 49.7025C31.1289 49.8422 31.1632 49.9945 31.1632 50.1486H33.1632ZM32.8694 51.4521C33.0628 51.0447 33.1632 50.5995 33.1632 50.1486H31.1632C31.1632 50.3026 31.1289 50.4549 31.0626 50.5946L32.8694 51.4521ZM32.0458 52.5046C32.3947 52.2188 32.6761 51.8595 32.8694 51.4521L31.0626 50.5946C30.9963 50.7344 30.8994 50.8583 30.7786 50.9572L32.0458 52.5046ZM30.852 53.1055C31.2892 52.9953 31.697 52.7903 32.0458 52.5046L30.7786 50.9572C30.6578 51.0562 30.516 51.1276 30.3634 51.1661L30.852 53.1055ZM29.5158 53.1423C29.9585 53.2282 30.4147 53.2156 30.852 53.1055L30.3634 51.1661C30.2108 51.2045 30.0514 51.2089 29.8968 51.1789L29.5158 53.1423ZM13.2877 53.1606H29.7063V51.1606H13.2877V53.1606ZM12.142 53.1055C12.5793 53.2156 13.0355 53.2282 13.4782 53.1423L13.0972 51.1789C12.9426 51.2089 12.7832 51.2045 12.6306 51.1661L12.142 53.1055ZM10.9482 52.5046C11.297 52.7903 11.7048 52.9953 12.142 53.1055L12.6306 51.1661C12.478 51.1276 12.3362 51.0562 12.2154 50.9572L10.9482 52.5046ZM10.1246 51.4521C10.3179 51.8595 10.5993 52.2188 10.9482 52.5046L12.2154 50.9572C12.0946 50.8583 11.9977 50.7344 11.9314 50.5946L10.1246 51.4521ZM9.83082 50.1486C9.83082 50.5995 9.93121 51.0447 10.1246 51.4521L11.9314 50.5946C11.8651 50.4549 11.8308 50.3026 11.8308 50.1486H9.83082ZM10.1246 48.845C9.93121 49.2524 9.83082 49.6976 9.83082 50.1486H11.8308C11.8308 49.9945 11.8651 49.8422 11.9314 49.7025L10.1246 48.845ZM10.9482 47.7926C10.5993 48.0783 10.3179 48.4376 10.1246 48.845L11.9314 49.7025C11.9977 49.5628 12.0946 49.4388 12.2154 49.3399L10.9482 47.7926ZM12.142 47.1916C11.7048 47.3018 11.2971 47.5069 10.9482 47.7926L12.2154 49.3399C12.3362 49.2409 12.478 49.1695 12.6306 49.1311L12.142 47.1916Z" fill="#239D4A" mask="url(#path-2-inside-1_909_2)"/>
</svg>
