<svg width="44" height="65" viewBox="0 0 44 65" fill="none" xmlns="http://www.w3.org/2000/svg">
<path d="M13.5168 17.2346H29.7063C30.2532 17.2346 30.7776 17.0186 31.1643 16.6342C31.551 16.2497 31.7682 15.7283 31.7682 15.1846C31.7684 14.9189 31.7146 14.6558 31.6101 14.4112C31.5056 14.1666 31.3525 13.9455 31.1599 13.7612C30.9674 13.5769 30.7394 13.4331 30.4896 13.3384C30.2399 13.2438 29.9734 13.2003 29.7063 13.2105L13.5168 17.2346ZM13.5168 17.2346C12.9752 17.236 12.4532 17.033 12.0563 16.6666C11.6594 16.3002 11.4172 15.7977 11.3785 15.2605L13.5168 17.2346ZM41.5631 64.3496L41.5154 64.3402H41.4667H2.06188C1.64672 64.3402 1.24913 64.1762 0.956441 63.8852C0.66385 63.5943 0.5 63.2004 0.5 62.7902V2.5809C0.5 2.17075 0.663849 1.77681 0.956441 1.4859C1.24913 1.1949 1.64671 1.0309 2.06188 1.0309H41.4667H41.5154L41.5631 1.02151C41.786 0.977705 42.0159 0.985198 42.2353 1.04339C42.4548 1.10158 42.6577 1.20888 42.8285 1.35685C42.9994 1.50481 43.1337 1.68948 43.2214 1.8966C43.3091 2.1037 43.3478 2.32788 43.3349 2.55201L43.334 2.56644V2.5809V62.7902V62.8047L43.3349 62.8191C43.3478 63.0433 43.3091 63.2674 43.2214 63.4745C43.1337 63.6817 42.9994 63.8663 42.8285 64.0143C42.6577 64.1623 42.4548 64.2696 42.2353 64.3278C42.0159 64.3859 41.786 64.3934 41.5631 64.3496ZM4.04739 4.05498H3.54739V4.55498V60.8162V61.3162H4.04739H39.4048H39.9048V60.8162V4.55498V4.05498H39.4048H4.04739ZM12.7412 13.8443C12.9162 13.7643 13.1052 13.7189 13.2977 13.7105H29.7063H29.7159L29.7255 13.7102C29.9257 13.7025 30.1254 13.7351 30.3125 13.806C30.4996 13.8769 30.6702 13.9845 30.8142 14.1224C30.9581 14.2602 31.0724 14.4253 31.1503 14.6077C31.2283 14.7901 31.2684 14.9862 31.2682 15.1842V15.1846C31.2682 15.5948 31.1044 15.9887 30.8118 16.2796C30.5191 16.5706 30.1215 16.7346 29.7063 16.7346L13.5168 16.7346L13.5155 16.7346C13.0997 16.7357 12.6994 16.5798 12.3955 16.2992C12.0937 16.0205 11.9092 15.6397 11.8778 15.2328C11.8714 15.0423 11.9022 14.8523 11.9687 14.6733C12.0362 14.4917 12.139 14.3251 12.2715 14.1828C12.404 14.0405 12.5636 13.9254 12.7412 13.8443ZM13.1924 31.1644L13.2396 31.1735H13.2877H13.8222H29.7063H29.7544L29.8016 31.1644C30.0282 31.1204 30.2618 31.1268 30.4856 31.1832C30.7093 31.2396 30.9176 31.3444 31.0954 31.4901C31.2732 31.6357 31.4162 31.8185 31.5143 32.0251C31.6124 32.2318 31.6632 32.4573 31.6632 32.6856C31.6632 32.9138 31.6124 33.1394 31.5143 33.346C31.4162 33.5527 31.2732 33.7354 31.0954 33.8811C30.9176 34.0267 30.7093 34.1316 30.4856 34.1879C30.2618 34.2443 30.0282 34.2507 29.8016 34.2068L29.7544 34.1976H29.7063H13.2877H13.2396L13.1924 34.2068C12.9658 34.2507 12.7322 34.2443 12.5084 34.1879C12.2847 34.1316 12.0764 34.0267 11.8986 33.8811C11.7208 33.7354 11.5778 33.5527 11.4797 33.346C11.3816 33.1394 11.3308 32.9138 11.3308 32.6856C11.3308 32.4573 11.3816 32.2318 11.4797 32.0251C11.5778 31.8185 11.7208 31.6357 11.8986 31.4901C12.0764 31.3444 12.2847 31.2396 12.5084 31.1832C12.7322 31.1268 12.9658 31.1204 13.1924 31.1644ZM13.1924 48.6274L13.2396 48.6365H13.2877H29.7063H29.7544L29.8016 48.6274C30.0282 48.5834 30.2618 48.5898 30.4856 48.6462C30.7093 48.7026 30.9176 48.8074 31.0954 48.9531C31.2732 49.0987 31.4162 49.2815 31.5143 49.4881C31.6124 49.6948 31.6632 49.9203 31.6632 50.1486C31.6632 50.3768 31.6124 50.6024 31.5143 50.809C31.4162 51.0157 31.2732 51.1984 31.0954 51.3441C30.9176 51.4897 30.7093 51.5946 30.4856 51.6509C30.2618 51.7073 30.0282 51.7137 29.8016 51.6698L29.7544 51.6606H29.7063H13.2877H13.2396L13.1924 51.6698C12.9658 51.7137 12.7322 51.7073 12.5084 51.6509C12.2847 51.5946 12.0764 51.4897 11.8986 51.3441C11.7208 51.1984 11.5778 51.0157 11.4797 50.809C11.3816 50.6024 11.3308 50.3768 11.3308 50.1486C11.3308 49.9203 11.3816 49.6948 11.4797 49.4881C11.5778 49.2815 11.7208 49.0987 11.8986 48.9531C12.0764 48.8074 12.2847 48.7026 12.5084 48.6462C12.7322 48.5898 12.9658 48.5834 13.1924 48.6274Z" fill="#239D4A" stroke="#239D4A"/>
</svg>
